<svg viewBox="0 0 24 28" fill="none" xmlns="http://www.w3.org/2000/svg">
<g filter="url(#filter0_d_1154_15027)">
<path d="M12 14L11.2929 14.7071L12 15.4142L12.7071 14.7071L12 14ZM13 5C13 4.44772 12.5523 4 12 4C11.4477 4 11 4.44771 11 5L13 5ZM6.29289 9.70711L11.2929 14.7071L12.7071 13.2929L7.70711 8.29289L6.29289 9.70711ZM12.7071 14.7071L17.7071 9.70711L16.2929 8.29289L11.2929 13.2929L12.7071 14.7071ZM13 14L13 5L11 5L11 14L13 14Z" fill="#CCD2E3"/>
<path d="M5 16L5 17C5 18.1046 5.89543 19 7 19L17 19C18.1046 19 19 18.1046 19 17V16" stroke="#CCD2E3" stroke-width="2"/>
</g>
<defs>
<filter id="filter0_d_1154_15027" x="-4" y="0" width="32" height="32" filterUnits="userSpaceOnUse" color-interpolation-filters="sRGB">
<feFlood flood-opacity="0" result="BackgroundImageFix"/>
<feColorMatrix in="SourceAlpha" type="matrix" values="0 0 0 0 0 0 0 0 0 0 0 0 0 0 0 0 0 0 127 0" result="hardAlpha"/>
<feOffset dy="4"/>
<feGaussianBlur stdDeviation="2"/>
<feComposite in2="hardAlpha" operator="out"/>
<feColorMatrix type="matrix" values="0 0 0 0 0 0 0 0 0 0 0 0 0 0 0 0 0 0 0.25 0"/>
<feBlend mode="normal" in2="BackgroundImageFix" result="effect1_dropShadow_1154_15027"/>
<feBlend mode="normal" in="SourceGraphic" in2="effect1_dropShadow_1154_15027" result="shape"/>
</filter>
</defs>
</svg>
