<svg viewBox="0 0 180 180" fill="none" xmlns="http://www.w3.org/2000/svg">
<path d="M86.7584 147.612C112.27 147.612 132.952 144.172 132.952 139.929C132.952 135.686 112.27 132.246 86.7584 132.246C61.2465 132.246 40.5649 135.686 40.5649 139.929C40.5649 144.172 61.2465 147.612 86.7584 147.612Z" fill="#1C1D1D"/>
<path d="M105.551 126.431C68.843 126.431 44.436 117.412 42.4128 85.5769C42.3482 84.6046 42.374 83.6324 42.471 82.6601C43.6086 71.1273 47.6097 59.9078 51.9145 48.6372C53.7502 43.827 54.9201 40.0084 56.549 36.6118C55.3855 37.2003 54.2414 37.8144 53.1232 38.4604C52.9875 38.5372 52.8517 38.6267 52.7225 38.7226C43.1949 45.6948 42.3676 51.5092 38.3342 62.0762C34.0358 73.3468 30.0283 84.5663 28.8907 96.0992C28.7937 97.065 28.7744 98.0436 28.8325 99.0159C30.8557 130.858 55.2627 139.87 91.9702 139.87C124.334 139.87 137.753 140.069 149.077 121.602C139.44 126.514 126.448 126.431 105.551 126.431Z" fill="#5B81A6"/>
<path d="M154.642 108.257C155.421 89.9081 151.216 78.1452 145.24 67.9198C139.465 58.0405 141.385 50.647 133.274 41.5749C133.021 41.293 132.723 41.0495 132.398 40.8509C129.919 39.3517 127.324 37.9999 124.637 36.7954C113.152 32.8296 106.228 33.7073 94.0549 33.7073C81.8881 33.7073 74.4648 30.0042 59.67 35.0464C59.5272 35.0976 59.378 35.1552 59.2417 35.2193C58.3008 35.6485 57.3794 36.0971 56.4644 36.5584C54.8292 39.9604 53.6547 43.7916 51.8118 48.6032C47.4967 59.8921 43.4735 71.1297 42.3315 82.6813C42.2341 83.6487 42.2147 84.6289 42.2731 85.6027C44.3041 117.496 68.8064 126.523 105.657 126.523C126.636 126.523 139.685 126.6 149.354 121.68C150.541 119.751 151.703 117.624 152.858 115.266C153.928 113.075 154.538 110.686 154.642 108.257Z" fill="#709CD2"/>
<path d="M86.3737 76.2719C86.7121 74.09 85.5223 72.0973 83.7162 71.8212C81.91 71.545 80.1715 73.09 79.833 75.2719C79.4946 77.4538 80.6844 79.4465 82.4905 79.7227C84.2967 79.9988 86.0352 78.4539 86.3737 76.2719Z" fill="#222222"/>
<path d="M127.106 75.1321C127.451 72.9046 126.238 70.8707 124.397 70.5891C122.556 70.3076 120.783 71.8851 120.437 74.1125C120.092 76.34 121.304 78.374 123.146 78.6556C124.987 78.9371 126.76 77.3596 127.106 75.1321Z" fill="#222222"/>
<path d="M97.495 80.406C99.1489 79.2963 101.038 80.4256 103.881 80.5692C106.725 80.7128 111.852 78.4216 113.989 80.0796C116.126 81.7377 116.126 91.5228 105.732 92.6913C95.345 93.8598 93.494 86.8489 95.1096 82.9388C95.8602 81.1306 96.5281 81.0588 97.495 80.406Z" fill="#2F4564"/>
<path d="M103.952 86.4995C100.037 86.5757 98.1291 89.4856 97.3486 91.1335C99.3087 92.5809 102.312 93.1838 105.849 92.7061C109.245 92.2475 111.246 91.1057 112.724 89.5616C110.926 87.976 108.213 86.4164 103.952 86.4995Z" fill="#D15F53"/>
<path opacity="0.2" d="M129.627 47.055C130.578 45.4192 128.736 42.595 125.512 40.7469C122.288 38.8988 118.903 38.7267 117.952 40.3625C117.001 41.9982 118.843 44.8224 122.067 46.6705C125.291 48.5185 128.676 48.6907 129.627 47.055Z" fill="white"/>
</svg>
