<svg viewBox="0 0 180 180" fill="none" xmlns="http://www.w3.org/2000/svg">
<path d="M92.2854 157.197C117.841 157.197 138.558 152.835 138.558 147.455C138.558 142.075 117.841 137.713 92.2854 137.713C66.73 137.713 46.0132 142.075 46.0132 147.455C46.0132 152.835 66.73 157.197 92.2854 157.197Z" fill="#1C1D1D"/>
<path d="M125.871 39.0373C134.702 49.504 134.487 61.7765 138.108 68.0463C142.214 75.1555 153.593 75.0092 153.599 92.8521C153.612 121.06 130.76 150.177 94.8947 150.635C59.0299 151.093 24.1933 121.244 25.2214 81.1073C26.0856 47.4564 49.2532 22.7715 83.3141 22.7969C94.2387 22.8033 115.268 26.4723 125.871 39.0373Z" fill="#ABD7B4"/>
<path d="M46.4819 102.493C38.8624 89.8836 27.5087 88.8471 25.4272 88.3384C28.4486 124.774 61.21 151.056 94.8861 150.629C99.1311 150.572 103.181 150.159 107.022 149.453C68.3628 147.221 54.6439 115.999 46.4819 102.493Z" fill="#96BC9D"/>
<path d="M86.4865 85.6831C88.2676 85.5885 89.6189 83.7407 89.5047 81.5559C89.3906 79.371 87.8542 77.6766 86.0731 77.7711C84.292 77.8657 82.9407 79.7135 83.0548 81.8984C83.169 84.0832 84.7054 85.7777 86.4865 85.6831Z" fill="#222222"/>
<path d="M125.116 76.4818C126.932 76.3854 128.31 74.4991 128.193 72.2687C128.077 70.0383 126.51 68.3083 124.694 68.4048C122.878 68.5012 121.501 70.3875 121.617 72.6179C121.734 74.8483 123.3 76.5782 125.116 76.4818Z" fill="#222222"/>
<path d="M94.8137 90.5726C95.9365 83.5397 105.366 89.5806 111.806 87.7684C118.246 85.9561 119.167 79.7562 124.92 81.2951C131.681 83.1073 130.502 94.5214 118.934 100.969C107.366 107.417 93.0287 101.751 94.8137 90.5726Z" fill="#323D33"/>
<path d="M121.514 99.3197C109.605 96.3056 101.368 97.2531 96.6748 98.4994C100.813 103.968 110.589 105.621 118.928 100.967C119.861 100.452 120.719 99.892 121.514 99.3197Z" fill="#D15F53"/>
<path opacity="0.2" d="M112.851 33.8636C113.365 32.0652 109.992 29.5044 105.317 28.1439C100.641 26.7834 96.433 27.1385 95.9181 28.937C95.4032 30.7354 98.7763 33.2962 103.452 34.6567C108.128 36.0172 112.336 35.6621 112.851 33.8636Z" fill="white"/>
</svg>
