<svg viewBox="0 0 180 180" fill="none" xmlns="http://www.w3.org/2000/svg">
<path d="M86.8156 151.033C110.702 151.033 130.066 147.71 130.066 143.611C130.066 139.512 110.702 136.189 86.8156 136.189C62.9292 136.189 43.5654 139.512 43.5654 143.611C43.5654 147.71 62.9292 151.033 86.8156 151.033Z" fill="#1C1D1D"/>
<path d="M45.4236 48.463C50.1106 47.0409 53.8544 43.5678 56.0534 39.0571C57.0675 36.9757 59.0661 35.0469 62.8451 34.0947C65.7517 33.3683 68.0451 33.3439 69.8432 33.6979C73.8169 34.4731 77.9497 34.0214 81.4929 32.0011C83.6625 30.762 86.5691 29.8342 90.4189 29.8342C95.1707 29.8342 98.4959 31.3175 100.754 33.0448C104.173 35.6573 108.395 36.878 112.598 36.2249C116.743 35.5779 121.901 35.645 126.229 38.3673C129.124 40.1863 130.733 42.2493 131.594 44.2026C133.569 48.6889 137.33 52.0338 141.84 53.6146C146.109 55.1162 150.678 57.8629 153.113 62.9107C156.42 69.7592 155.206 78.1092 153.779 83.5416C152.83 87.1489 153.024 90.9638 154.292 94.4613C155.772 98.5569 156.927 104.264 154.292 108.573C152.995 110.697 151.438 112.12 149.864 113.066C145.454 115.727 142.247 120.097 141.333 125.298C140.496 130.046 138.539 135.229 134.152 138.103C128.469 141.827 120.752 141.686 115.458 140.972C111.897 140.49 108.288 141.241 105.134 143.023C102.982 144.238 100.117 145.324 96.7626 145.324C94.198 145.324 91.7041 144.427 89.5287 143.243C85.16 140.862 80.0544 140.618 75.4087 142.352C72.6554 143.377 69.1535 143.713 65.0737 142.046C62.1672 140.862 60.1096 139.147 58.6475 137.285C55.1219 132.793 49.7746 130.278 44.2092 130.846C40.1294 131.261 35.6959 130.187 32.4297 125.316C29.0633 120.299 28.5563 115.989 29.0928 112.693C29.7944 108.36 28.6565 103.971 26.375 100.272C25.0425 98.1113 23.9872 95.1632 23.8752 91.1957C23.716 85.3422 26.1038 80.7643 28.4915 77.688C30.9676 74.4896 32.1821 70.4794 31.9935 66.3899C31.793 62.1294 32.4887 56.8069 36.3385 53.3461C39.0033 50.9168 42.3108 49.4091 45.4236 48.463Z" fill="#F6BC4C"/>
<path d="M67.9283 82.3071C68.237 80.2315 67.1517 78.336 65.5041 78.0733C63.8565 77.8106 62.2706 79.2802 61.9619 81.3558C61.6531 83.4314 62.7385 85.327 64.3861 85.5897C66.0336 85.8524 67.6196 84.3827 67.9283 82.3071Z" fill="#222222"/>
<path d="M105.087 81.2138C105.403 79.0949 104.296 77.1601 102.617 76.8923C100.937 76.6245 99.3195 78.1251 99.0043 80.244C98.6891 82.3629 99.7953 84.2977 101.475 84.5655C103.155 84.8333 104.772 83.3327 105.087 81.2138Z" fill="#222222"/>
<path d="M79.2621 86.1023L87.8461 86.3709C87.8461 86.3709 89.1786 97.2845 82.6757 96.1064C76.1728 94.9284 79.2621 86.1023 79.2621 86.1023Z" fill="#040000"/>
<path d="M87.8584 90.5875C86.6144 89.5987 84.9931 89.1714 82.9356 90.148C80.483 91.3078 80.2118 93.3587 80.7424 95.3851C81.2671 95.7147 81.9039 95.965 82.6762 96.1054C86.3845 96.7768 87.5459 93.5112 87.8584 90.5875Z" fill="#D15F53"/>
<path opacity="0.2" d="M127.621 46.0919C128.489 44.5359 126.808 41.8493 123.867 40.0913C120.926 38.3333 117.839 38.1696 116.971 39.7256C116.103 41.2816 117.784 43.9681 120.725 45.7261C123.666 47.4841 126.754 47.6479 127.621 46.0919Z" fill="white"/>
</svg>
