<svg viewBox="0 0 180 180" fill="none" xmlns="http://www.w3.org/2000/svg">
<path d="M92.648 149.162C113.968 149.162 131.252 146.393 131.252 142.976C131.252 139.559 113.968 136.79 92.648 136.79C71.3275 136.79 54.0439 139.559 54.0439 142.976C54.0439 146.393 71.3275 149.162 92.648 149.162Z" fill="#1C1D1D"/>
<path d="M149.848 93.9792C148.41 47.7889 129.451 32.9616 116.233 32.4805C113.439 32.3757 106.303 31.9316 100.413 35.9036L95.8796 38.4879C91.8644 41.0784 79.1835 42.4661 75.0141 40.6281C72.436 39.4932 69.9565 38.6544 66.8726 37.0015C65.084 36.0455 63.0425 35.6878 61.0318 35.9468C49.7633 37.4332 34.8065 56.1709 34.8003 88.8168C34.8003 108.184 40.1416 128.981 49.313 134.242C62.105 141.582 57.6087 130.751 91.0379 131.091C121.383 131.405 121.883 137.863 132.559 134.242C140.904 131.411 150.878 127.088 149.848 93.9792Z" fill="#9073B1"/>
<path d="M101.005 39.6476C101.005 39.6476 105.662 37.2976 105.662 37.2915C111.749 33.6155 118.848 34.4173 121.636 34.6578C123.382 34.8059 125.213 35.2191 127.076 35.9161C123.351 33.6525 119.607 32.5917 116.245 32.4683C113.451 32.3635 106.315 31.9193 100.425 35.8914L95.8919 38.4757C93.3508 40.1163 87.3495 41.2697 82.2241 41.4301C87.5037 42.5465 97.44 41.7076 101.005 39.6476Z" fill="#7D65A0"/>
<path d="M49.7633 122.012C40.5918 116.745 37.1132 103.2 37.1132 83.8337C37.1132 71.2021 39.3583 60.6613 42.7567 52.3904C38.0939 61.2411 34.8065 73.4965 34.8003 88.811C34.8003 108.178 40.1416 128.976 49.313 134.237C62.105 141.576 57.6087 130.746 91.0379 131.085C101.159 131.19 108.067 131.831 113.143 132.886C108.375 130.832 102.115 130.073 93.5544 129.531C69.2904 127.995 62.5552 129.352 49.7633 122.012Z" fill="#7D65A0"/>
<path d="M81.9581 77.5394C82.2811 75.4421 81.1456 73.5267 79.422 73.2613C77.6983 72.9958 76.0392 74.4809 75.7162 76.5782C75.3932 78.6755 76.5286 80.5909 78.2523 80.8564C79.9759 81.1218 81.6351 79.6368 81.9581 77.5394Z" fill="#222222"/>
<path d="M119.167 76.0212C119.497 73.8801 118.339 71.925 116.582 71.6544C114.825 71.3838 113.133 72.9001 112.803 75.0412C112.473 77.1823 113.631 79.1374 115.388 79.408C117.145 79.6786 118.837 78.1623 119.167 76.0212Z" fill="#222222"/>
<path opacity="0.2" d="M129.94 49.4428C130.848 47.8705 129.089 45.1558 126.013 43.3793C122.936 41.6029 119.706 41.4375 118.798 43.0098C117.89 44.5821 119.648 47.2967 122.725 49.0732C125.802 50.8496 129.032 51.0151 129.94 49.4428Z" fill="white"/>
<path d="M103.682 92.3451C106.833 90.6243 107.493 87.6515 107.617 86.6831C107.641 86.5166 107.506 86.3748 107.339 86.3748L90.0631 86.6399C89.8843 86.6399 89.7547 86.8188 89.7979 86.9915C90.39 89.1873 91.3275 90.8094 92.6412 91.8949C93.6713 90.9019 95.1083 89.952 96.9463 89.8163C99.0495 89.6683 101.665 91.019 103.682 92.3451Z" fill="#32224A"/>
<path d="M103.682 92.345C101.665 91.0189 99.0498 89.6682 96.9589 89.8224C95.1209 89.9581 93.6777 90.9079 92.6538 91.9009C94.2204 93.1961 96.3175 93.7389 99.0066 93.5785C100.986 93.4613 102.504 92.9864 103.682 92.345Z" fill="#D15F53"/>
</svg>
