<svg viewBox="0 0 180 180" fill="none" xmlns="http://www.w3.org/2000/svg">
<path d="M37.4153 47.7552C36.279 51.8319 33.9021 55.3368 30.7483 57.9345C25.3568 62.3467 18.4347 70.9102 19.7797 85.191C21.5305 103.884 33.4499 108.271 37.7284 109.253C38.5168 109.427 39.3053 109.514 40.1169 109.514H40.8126C40.8126 109.514 46.5404 128.53 65.2776 121.11C67.7241 120.141 70.4373 120.352 72.6287 121.856C78.9942 126.206 93.279 134.136 108.225 130.059C121.257 126.505 128.91 119.333 132.69 114.71C134.707 112.249 137.42 110.571 140.435 110.074C147.334 108.93 159.346 104.443 160.25 87.1174C160.25 87.1174 161.155 76.1676 150.766 67.9894C148.586 66.2742 147.032 63.8133 146.174 61.0665C144.47 55.5978 140.006 46.7858 128.597 44.3373C125.107 43.5915 121.964 41.6526 119.448 38.9556C113.605 32.7039 101.279 23.4444 84.3394 31.9208C80.8726 33.6485 76.8956 33.6485 73.4751 31.809C68.327 29.0125 59.828 26.4397 50.4827 31.8587C42.0417 36.7557 38.7024 43.0944 37.4153 47.7552Z" fill="#76A9DB"/>
<path d="M94.2049 79.5232C93.115 78.7278 91.9671 77.9696 90.6917 77.5967C88.1756 76.8634 84.9175 76.9753 84.2914 82.1954C83.2478 90.8832 91.9555 92.9961 97.7993 90.1126C103.643 87.2291 105.974 79.2622 102.252 77.4352C102.252 77.4352 101.243 76.329 98.008 78.7402C95.9789 80.2565 94.8078 79.9582 94.2049 79.5232Z" fill="#040000"/>
<path d="M93.8337 84.7933C89.532 84.7808 87.1435 87.192 86.042 88.7581C88.7436 91.741 93.9033 92.0393 97.7991 90.1252C98.9006 89.5784 99.8862 88.8575 100.721 88.0248C99.8514 86.6825 97.915 84.8057 93.8337 84.7933Z" fill="#040000"/>
<path d="M93.8347 84.7933C89.533 84.7808 87.1445 87.192 86.043 88.7581C88.7446 91.741 93.9042 92.0393 97.8001 90.1252C98.9016 89.5784 99.8871 88.8575 100.722 88.0248C99.8524 86.6825 97.916 84.8057 93.8347 84.7933Z" fill="#DE9079"/>
<path d="M130.912 141.398C130.843 144.593 111.547 148.119 87.3107 145.888C54.4678 142.872 43.8826 142.004 43.952 138.795C44.0214 135.6 63.5375 133.589 87.5536 134.305C111.57 135.022 130.982 138.203 130.912 141.398Z" fill="#1C1D1D"/>
<path d="M85.1374 69.1499C85.1759 66.6652 84.0496 64.6305 82.6217 64.6051C81.1938 64.5797 80.0051 66.5732 79.9666 69.0578C79.9282 71.5425 81.0545 73.5772 82.4824 73.6026C83.9102 73.6281 85.0989 71.6345 85.1374 69.1499Z" fill="#090909"/>
<path d="M32.2209 64.6958C35.5834 61.0666 41.0445 58.3198 43.2475 49.5699C44.5809 44.3 48.3376 39.1048 48.3376 39.1048C56.5119 27.9933 74.9361 32.4553 74.9361 32.4553V32.4429C74.4375 32.2564 73.9505 32.0452 73.4751 31.7841C68.327 29.0125 59.8281 26.4397 50.4827 31.8587C42.0301 36.7557 38.7024 43.0944 37.4037 47.7428C36.2675 51.8195 33.8905 55.3244 30.7368 57.9221C25.3568 62.3467 18.4347 70.9102 19.7797 85.191C21.5305 103.884 33.4499 108.271 37.7284 109.253C38.5168 109.427 39.3053 109.514 40.1169 109.514H40.8126C40.8126 109.514 46.5404 128.53 65.2776 121.11C65.7298 120.936 66.1936 120.812 66.6574 120.713C43.178 124.429 43.5838 104.829 43.5838 104.829C37.8444 105.177 29.4149 98.9746 27.0264 88.2858C25.2292 80.2567 27.7453 69.5182 32.2209 64.6958Z" fill="#6895BA"/>
<path d="M140.351 58.4314C139.667 59.6991 136.281 57.1885 132.513 54.8518C128.745 52.5152 126.066 49.582 126.75 48.3143C127.435 47.0465 131.539 47.9911 135.296 50.3153C139.053 52.6395 141.024 57.1636 140.351 58.4314Z" fill="#9BC9ED"/>
<path d="M87.0272 89.6281C86.7257 89.4043 86.4475 89.1558 86.1924 88.8823C86.4591 89.1558 86.7373 89.4043 87.0272 89.6281Z" fill="#090909"/>
<path d="M96.0262 90.7964C95.6783 90.9083 95.3189 90.9953 94.9595 91.0698C95.3189 90.9953 95.6783 90.9083 96.0262 90.7964Z" fill="#090909"/>
<path d="M91.2604 91.2313C90.8778 91.1816 90.5068 91.1195 90.1357 91.0325C90.5068 91.1319 90.8778 91.194 91.2604 91.2313Z" fill="#090909"/>
<path d="M89.8101 90.9579C88.8825 90.7093 88.0245 90.324 87.2593 89.802C88.0245 90.3364 88.8941 90.7093 89.8101 90.9579Z" fill="#090909"/>
<path d="M97.8096 90.1252C97.369 90.3365 96.9168 90.523 96.4414 90.6721C96.9052 90.5105 97.369 90.3365 97.8096 90.1252Z" fill="#090909"/>
<path d="M100.72 88.0247C100.349 88.3975 99.9319 88.7331 99.5029 89.0563C99.9435 88.7331 100.349 88.3975 100.72 88.0247Z" fill="#090909"/>
<path d="M91.6182 91.2808C92.5805 91.3678 93.5661 91.3181 94.5517 91.1565C93.5661 91.3181 92.5805 91.3553 91.6182 91.2808Z" fill="#090909"/>
<path d="M99.2028 89.28C98.7622 89.5908 98.2984 89.8766 97.7998 90.1252C98.2984 89.8766 98.7622 89.5908 99.2028 89.28Z" fill="#090909"/>
<path d="M90.1455 91.0448C90.0411 91.0199 89.9252 90.9951 89.8208 90.9702C89.9252 90.9951 90.0295 91.0199 90.1455 91.0448Z" fill="#DE9079"/>
<path d="M99.5172 89.0564C99.4128 89.131 99.3085 89.2055 99.2041 89.2801C99.3085 89.2055 99.4128 89.131 99.5172 89.0564Z" fill="#DE9079"/>
<path d="M96.4418 90.6719C96.3027 90.7216 96.1636 90.7589 96.0244 90.7962C96.1636 90.7589 96.3027 90.7216 96.4418 90.6719Z" fill="#DE9079"/>
<path d="M94.9594 91.0696C94.8203 91.0944 94.6811 91.1317 94.542 91.1566C94.6927 91.1317 94.8203 91.0944 94.9594 91.0696Z" fill="#DE9079"/>
<path d="M91.6202 91.2801C91.5042 91.268 91.3883 91.2558 91.2607 91.2437C91.3883 91.2558 91.5042 91.268 91.6202 91.2801Z" fill="#DE9079"/>
<path d="M86.043 88.758C86.0893 88.8078 86.1473 88.845 86.1937 88.8823C86.1473 88.8326 86.1009 88.7829 86.0546 88.7456C86.0546 88.7456 86.0546 88.758 86.043 88.758Z" fill="#DE9079"/>
<path d="M87.27 89.8019C87.1888 89.7522 87.1192 89.6901 87.0381 89.6279C87.1077 89.6901 87.1888 89.7522 87.27 89.8019Z" fill="#DE9079"/>
<path d="M93.8328 84.7933C89.5312 84.7808 87.1542 87.1796 86.0527 88.7456C86.0991 88.7954 86.1455 88.8451 86.1919 88.8824C86.447 89.1558 86.7368 89.4044 87.0267 89.6281C87.1079 89.6902 87.1774 89.7524 87.2586 89.8021C88.0238 90.3241 88.8819 90.7094 89.8094 90.958C89.9138 90.9828 90.0297 91.0077 90.1341 91.0326C90.5051 91.1196 90.8762 91.1817 91.2588 91.2314C91.3747 91.2438 91.4907 91.2687 91.6182 91.2687C92.5806 91.3557 93.5661 91.306 94.5517 91.1444C94.6908 91.1196 94.83 91.0947 94.9691 91.0574C95.3286 90.9828 95.688 90.8958 96.0358 90.784C96.175 90.7467 96.3141 90.7094 96.4532 90.6597C96.917 90.4981 97.3808 90.3241 97.8214 90.1128C98.32 89.8642 98.7722 89.5784 99.2244 89.2677C99.3287 89.1931 99.4331 89.1185 99.5375 89.0439C99.9665 88.7208 100.372 88.3852 100.755 88.0123C99.8505 86.6824 97.9142 84.8057 93.8328 84.7933Z" fill="#D15F53"/>
<path d="M94.2031 79.5234C93.1943 78.79 92.1392 78.1065 90.9798 77.7087C90.7479 78.1562 90.2957 79.2251 90.9682 79.8589C91.8262 80.6544 96.0583 82.7921 98.8758 80.7662C98.8758 80.7662 99.386 80.4058 99.3628 80.0205C99.3628 80.0205 99.6411 79.4115 98.9454 78.1313C98.6555 78.3053 98.354 78.5166 98.0178 78.7528C95.9771 80.2566 94.806 79.9584 94.2031 79.5234Z" fill="#F8F7F7"/>
<path d="M109.95 69.8469C109.988 67.3623 108.862 65.3275 107.434 65.3021C106.006 65.2767 104.818 67.2702 104.779 69.7549C104.741 72.2395 105.867 74.2743 107.295 74.2997C108.723 74.3251 109.911 72.3315 109.95 69.8469Z" fill="#090909"/>
</svg>
