<svg width="180" height="180" viewBox="0 0 180 180" fill="none" xmlns="http://www.w3.org/2000/svg">
<ellipse cx="91.5718" cy="141.207" rx="38.1133" ry="4.1768" fill="#1C1C1C"/>
<path d="M53.0444 122.17V64.6895C53.0444 64.6895 54.0129 38.7292 76.3912 30.2761C98.7696 21.8229 114.853 31.8438 124.531 46.0981C125.077 47.3343 130.307 52.286 130.092 72.3001V118.309C130.092 118.309 129.124 110.339 127.671 114.566C126.219 118.792 123.922 134.007 117.267 127.605C117.267 127.605 111.221 120.236 107.472 124.946C103.723 129.656 98.6451 137.26 93.2009 134.725C87.7568 132.19 82.4372 120.111 75.6649 126.997C68.8926 133.882 64.7766 132.916 61.2694 123.979C57.7622 115.042 56.9183 114.442 53.0444 122.17Z" fill="#E2E0EB"/>
<path d="M93.4921 75.968C94.7149 75.968 95.7063 74.9766 95.7063 73.7538C95.7063 72.5309 94.7149 71.5396 93.4921 71.5396C92.2692 71.5396 91.2778 72.5309 91.2778 73.7538C91.2778 74.9766 92.2692 75.968 93.4921 75.968Z" fill="#010202"/>
<path d="M76.3911 30.2751C73.126 31.5113 70.3244 33.1273 67.9032 34.9713L67.8271 35.137C67.8271 35.137 85.8474 23.4587 102.111 32.6922C118.374 41.9258 125.623 56.2354 125.748 73.9981C125.845 87.8104 125.789 111.54 125.762 121.395C126.585 118.702 127.18 116.001 127.671 114.565C129.124 110.338 130.092 118.308 130.092 118.308V72.2991C130.307 52.285 125.077 47.3264 124.53 46.0971C114.853 31.8428 98.7625 21.8219 76.3911 30.2751Z" fill="#BEB9CF"/>
<path d="M74.3861 73.8132C75.609 73.8132 76.6003 72.8219 76.6003 71.599C76.6003 70.3761 75.609 69.3848 74.3861 69.3848C73.1632 69.3848 72.1719 70.3761 72.1719 71.599C72.1719 72.8219 73.1632 73.8132 74.3861 73.8132Z" fill="#010202"/>
<path d="M69.8126 44.0019C71.6184 41.6593 72.1938 39.0776 71.0978 38.2355C70.0017 37.3934 67.6493 38.6098 65.8435 40.9524C64.0376 43.295 63.4622 45.8768 64.5583 46.7189C65.6543 47.561 68.0067 46.3446 69.8126 44.0019Z" fill="#F4F3F0"/>
<path d="M75.2363 77.9417L90.1852 79.1986C90.1852 79.1986 89.6595 80.2897 88.5527 81.4085C87.2729 82.7 85.2115 84.026 82.2784 83.7635C76.7859 83.2732 75.2363 77.9417 75.2363 77.9417Z" fill="#040000"/>
<path d="M79.644 83.0657C80.3981 83.4179 81.2697 83.6665 82.2727 83.7563C85.2127 84.0187 87.2741 82.6927 88.547 81.4013C88.547 81.4082 83.3104 80.2341 79.644 83.0657Z" fill="#D15F53"/>
<path d="M83.1024 79.7509L84.0363 79.7992C84.1954 79.8061 84.3337 79.6818 84.3476 79.523L84.3891 78.715L82.8326 78.5837L82.8257 79.4608C82.8257 79.6128 82.9433 79.744 83.1024 79.7509Z" fill="white"/>
<path d="M81.0335 78.4316L80.9228 79.3985C80.9159 79.4814 80.992 79.5573 81.1027 79.5712L82.2164 79.7024C82.3271 79.7162 82.4239 79.6609 82.4378 79.5712L82.5969 78.556L81.0335 78.4316Z" fill="white"/>
</svg>
