<svg viewBox="0 0 180 180" fill="none" xmlns="http://www.w3.org/2000/svg">
<path d="M86.2013 156.008C111.413 156.008 131.851 152.578 131.851 148.347C131.851 144.116 111.413 140.686 86.2013 140.686C60.9895 140.686 40.5513 144.116 40.5513 148.347C40.5513 152.578 60.9895 156.008 86.2013 156.008Z" fill="#1C1D1D"/>
<path d="M149.256 105.043C150.961 99.0512 150.911 92.8769 150.911 86.1734C150.886 51.7486 124.327 23.2461 91.0482 22.805C57.1779 22.3577 29.5862 50.6145 29.5862 85.5371C29.5862 93.3368 30.9677 100.809 33.4817 107.702C28.5346 110.619 25.1992 116.119 25.1992 122.425C25.1992 131.788 32.5358 139.373 41.5837 139.373H54.4648C63.5749 145.024 74.4895 148.275 85.8834 148.275C97.2772 148.275 112.293 145.024 121.397 139.373H138.895C144.576 139.266 153.599 132.323 153.599 122.967C153.599 117.467 153.493 111.879 150.195 108.602C149.281 107.676 148.895 106.309 149.256 105.043Z" fill="#D9E47A"/>
<path d="M66.1312 71.4836C66.9562 69.4831 66.3086 67.305 64.6848 66.6186C63.0611 65.9322 61.076 66.9974 60.251 68.9978C59.4261 70.9982 60.0736 73.1763 61.6974 73.8628C63.3212 74.5492 65.3063 73.484 66.1312 71.4836Z" fill="#222222"/>
<path d="M104.466 79.9392C105.308 77.897 104.649 75.6742 102.993 74.9744C101.338 74.2745 99.3129 75.3627 98.4707 77.4049C97.6285 79.447 98.2878 81.6699 99.9433 82.3697C101.599 83.0695 103.624 81.9814 104.466 79.9392Z" fill="#222222"/>
<path d="M90.9777 148.053C53.05 142.975 53.4732 125.07 53.4732 125.07C53.4732 125.07 51.4633 136.114 39.416 139.207C39.7458 139.252 40.0756 139.289 40.4117 139.315C40.4552 139.321 40.4988 139.321 40.5423 139.327C40.8908 139.352 41.2393 139.365 41.5878 139.365H54.4688C63.5789 145.016 74.4936 148.267 85.8875 148.267C87.5178 148.255 89.2291 148.185 90.9777 148.053Z" fill="#C8CC71"/>
<path d="M132.229 139.371C120.076 135.566 119.839 125.996 119.839 125.996C118.284 141.104 112.061 143.548 111.93 143.762C115.446 142.528 118.694 141.06 121.407 139.377H132.229V139.371Z" fill="#C8CC71"/>
<path opacity="0.2" d="M66.6617 39.5186C70.9635 37.3598 73.7913 34.2627 72.9778 32.601C72.1643 30.9393 68.0176 31.3422 63.7158 33.5009C59.414 35.6597 56.5862 38.7568 57.3997 40.4185C58.2132 42.0802 62.3599 41.6773 66.6617 39.5186Z" fill="white"/>
<path d="M91.3189 84.4044C88.5871 78.312 67.492 76.3085 65.6936 81.2731C64.2188 85.3494 66.8075 90.2385 70.3047 93.6784C71.6239 90.6795 74.1814 86.8111 78.5187 87.2144C82.8062 87.6113 85.2952 91.5741 86.5896 94.5857C90.1863 91.8198 92.8559 87.8381 91.3189 84.4044Z" fill="#383A1B"/>
<path d="M78.5187 87.2238C74.1752 86.8269 71.6239 90.6952 70.3047 93.6879C72.8311 96.1765 75.8243 97.9091 78.1018 98.0288C80.4664 98.1548 83.808 96.7372 86.5896 94.5951C85.2953 91.5836 82.8 87.6207 78.5187 87.2238Z" fill="#D15F53"/>
</svg>
