<svg width="180" height="180" viewBox="0 0 180 180" fill="none" xmlns="http://www.w3.org/2000/svg">
<path d="M134.499 117.671C134.499 117.671 157.022 117.342 155.367 124.404C153.713 131.455 145.156 147.075 88.4157 147.52C31.6648 147.976 32.1207 123.206 32.1207 123.206L134.499 117.671Z" fill="#1C1D1D"/>
<path d="M27.6241 116.631C27.6241 116.631 23.4674 62.1285 64.8642 40.2849C64.8642 40.2849 90.663 25.3125 119.579 44.8657C119.579 44.8657 140.172 57.7598 134.552 92.5081C134.552 92.5081 128.105 108.732 133.926 114.564C139.747 120.385 136.842 130.787 121.859 136.619C121.859 136.619 92.5292 151.178 45.311 138.072C45.311 138.062 27.0939 132.304 27.6241 116.631Z" fill="#EBC359"/>
<path d="M134.552 92.4975C134.584 92.2748 134.616 92.0521 134.648 91.8294C134.001 91.787 133.598 91.84 133.598 91.84C129.187 91.9885 127.586 96.1133 127.055 98.1704C126.79 99.2096 126.504 100.238 126.143 101.256L122.337 112.189C109.793 138.221 94.2582 138.942 77.5362 139.641C63.5711 140.225 38.5782 130.618 30.6997 127.437C35.7683 135.039 45.3116 138.062 45.3116 138.062C92.5298 151.157 121.86 136.598 121.86 136.598C136.832 130.777 139.748 120.375 133.927 114.543C128.095 108.721 134.552 92.4975 134.552 92.4975Z" fill="#D29F3C"/>
<path d="M91.8555 74.6629C93.4264 75.0179 95.0745 73.6477 95.5367 71.6025C95.9989 69.5574 95.1002 67.6116 93.5293 67.2566C91.9585 66.9016 90.3104 68.2717 89.8481 70.3169C89.3859 72.3621 90.2846 74.3079 91.8555 74.6629Z" fill="black"/>
<path d="M64.24 73.964C64.24 73.964 57.2637 69.1498 55.0851 76.5742C52.9065 83.9986 60.1123 88.4139 70.5768 89.465C79.3158 90.3512 86.6992 90.7507 90.5419 86.2982C92.2468 84.316 92.8508 81.5343 91.781 79.1267C91.0554 77.4692 89.4992 75.8296 86.3093 75.4131C79.3458 74.4965 77.7482 82.075 64.24 73.964Z" fill="#040000"/>
<path d="M73.5662 82.0601C67.7411 81.4105 62.5565 83.5336 60.7106 87.0212C63.3666 88.2836 66.7394 89.115 70.5578 89.5029C76.1004 90.055 81.0926 90.4128 85.0034 89.4686C83.7819 85.7827 79.2485 82.7031 73.5662 82.0601Z" fill="#D15F53"/>
<path d="M62.3751 75.7067C62.6875 76.1753 63.2692 76.7274 64.3649 76.9488C65.9164 77.2482 66.5695 76.257 66.8046 75.7146L66.8469 75.3476C66.0448 74.9413 65.2161 74.477 64.3185 73.9385C64.3185 73.9385 63.4797 73.3602 62.2779 72.9069L62.1047 74.488C62.0461 74.911 62.1306 75.3406 62.3751 75.7067Z" fill="white"/>
<path d="M66.8779 75.3823C66.8779 75.3823 66.8441 75.5224 66.7658 75.7029L66.7468 75.8295C66.702 76.2667 66.7853 76.724 67.0143 77.1172C67.2978 77.5838 67.8092 78.0893 68.7758 78.2902C70.1265 78.5657 70.7341 77.6305 70.969 77.0889C69.7655 76.707 68.4105 76.1621 66.8779 75.3823Z" fill="white"/>
<path d="M66.892 75.3823C66.8633 75.3667 66.8347 75.3511 66.8202 75.3505L66.7772 75.7189C66.8575 75.5232 66.892 75.3823 66.892 75.3823Z" fill="white"/>
<path d="M59.7964 69.8875C61.2308 70.303 62.8321 69.1259 63.3731 67.2584C63.914 65.3909 63.1898 63.5401 61.7554 63.1246C60.321 62.7091 58.7197 63.8862 58.1787 65.7537C57.6378 67.6212 58.362 69.472 59.7964 69.8875Z" fill="black"/>
<path d="M118.555 50.6959C119.133 49.6955 117.019 47.3938 113.834 45.5549C110.649 43.7161 107.599 43.0364 107.021 44.0368C106.444 45.0372 108.557 47.3388 111.742 49.1777C114.927 51.0166 117.977 51.6963 118.555 50.6959Z" fill="#FED26F"/>
</svg>
