<svg viewBox="0 0 183 140" fill="none" xmlns="http://www.w3.org/2000/svg">
    <path d="M131.811 63.186s8.382-8.188 14.753-1.773c3.552 3.583-1.13 8.288-5.042 7.315-4.26-1.074-6.52-5.517-9.711-5.542zM125.863 51.827s3.887-12.233 13.326-9.35c5.253 1.61 3.154 8.576-1.106 9.662-4.669 1.185-9.127-1.935-12.22-.312z" fill="#fff"/>
    <path d="M91.537 120.353c20.439 0 37.008-2.358 37.008-5.267 0-2.909-16.569-5.268-37.008-5.268-20.439 0-37.008 2.359-37.008 5.268s16.57 5.267 37.008 5.267z" fill="#1C1D1D"/>
    <path d="M58.876 95.814c-2.472 4.269-5.725 10.023-5.266 10.584.832 1.024 13.177 7.402 16.853 8.551 2.595.811 4.545-1.898 5.886-4.619.484-.986.882-1.298 1.354-2.009 1.34-1.71 3.874-4.232 7.389-4.332 5.34-.162-20.876-12.906-20.876-12.906l-5.34 4.73z" fill="#F6BC4C"/>
    <path d="m60.428 94.428-4.434 6.466s11.897 6.141 11.425 8.937c-.186 1.123-.596 2.359-1.018 3.457 1.677.774 3.13 1.386 4.049 1.661 2.595.811 4.545-1.898 5.886-4.619.484-.986.882-1.298 1.354-2.009.695-.887 1.714-1.985 3.03-2.859l-.137-2.009-10.022-9.187c-3.564-1.835-6.358-3.183-6.358-3.183l-3.775 3.345z" fill="#DDA13A"/>
    <path d="M134.903 72.172a2.42 2.42 0 0 1-.111-1.947c.534-1.41 1.341-4.256 1.006-8.013-.348-3.957-3.465-8.014-5.154-9.936a2.41 2.41 0 0 1-.447-2.434c.596-1.597 1.167-4.606-.621-8.512-2.198-4.806-9.153-7.827-11.748-8.813a2.36 2.36 0 0 1-1.354-1.323c-1.081-2.646-4.372-9.836-8.408-10.747-3.253-.736-6.507.537-8.358 1.498-.906.474-1.999.312-2.732-.387-1.527-1.46-4.42-3.62-8.233-3.507-4.322.124-7.65 3.782-9.041 5.591a2.373 2.373 0 0 1-1.962.937c-2.31-.05-7.265.062-9.774 1.872-2.583 1.86-4.06 6.416-4.607 8.413a2.406 2.406 0 0 1-1.143 1.46c-1.813 1.011-5.861 3.37-7.091 4.968-1.08 1.41-1.142 4.431-1.068 6.254a2.374 2.374 0 0 1-1.143 2.134c-1.54.924-4.123 2.784-5.625 5.592-1.64 3.046-.249 7.24.608 9.274.323.749.236 1.61-.223 2.284-1.354 1.972-3.962 6.416-3.838 11.296.112 4.706 2.434 6.703 3.738 7.465.584.337.982.91 1.106 1.572.484 2.385 1.776 7.84 4.098 11.047.633.861 1.304 1.51 1.962 1.985 3.95 2.321 12.754 6.79 24.428 8.475a2.38 2.38 0 0 1 1.18.05c2.595.799 6.259 1.772 8.705 1.872 1.776.075 4.26-.711 6.52-1.635 1.49-.612 3.154.424 3.266 2.047.199 2.896.969 5.879 3.552 6.166 3.85.425 17.759-.474 18.926-1.086.596-.312.211-5.092-.31-9.686-.149-1.31.795-2.509 2.098-2.646 1.975-.2 4.21-.961 5.577-3.108 1.9-2.97 1.713-6.503 1.353-8.563a2.385 2.385 0 0 1 1.205-2.496c2.024-1.136 5.303-3.52 5.849-7.252.596-4.132-1.229-8.326-2.186-10.16z" fill="#F6BC4C"/>
    <path opacity=".5" d="M124.103 40.927c.635-1.104-.594-3.01-2.744-4.259-2.151-1.247-4.408-1.364-5.042-.259-.635 1.104.594 3.011 2.744 4.259 2.15 1.248 4.408 1.364 5.042.26z" fill="#fff"/>
    <path d="M121.006 106.348a2.402 2.402 0 0 1 .708-1.984s-6.147.437-7.178 1.847c-1.03 1.398-.881 10.71-2.098 10.785 4.259-.25 8.258-.637 8.867-.962.608-.299.223-5.08-.299-9.686z" fill="#DDA13A"/>
    <path opacity=".3" d="M87.613 71.61c6.94 0 12.568-2.184 12.568-4.88 0-2.695-5.627-4.88-12.568-4.88s-12.568 2.185-12.568 4.88 5.627 4.88 12.568 4.88z" fill="#E54D6C"/>
    <path d="M76.746 68.64c4.396 0 7.96-3.582 7.96-8 0-4.42-3.564-8.002-7.96-8.002-4.397 0-7.96 3.582-7.96 8.001s3.563 8.001 7.96 8.001z" fill="#fff"/>
    <path d="M78.31 65.045c2.696 0 4.88-2.196 4.88-4.905 0-2.71-2.184-4.906-4.88-4.906-2.695 0-4.88 2.197-4.88 4.906 0 2.709 2.185 4.905 4.88 4.905z" fill="#040000"/>
    <path d="M77.104 63.008c.337-.503.117-1.245-.492-1.657-.61-.411-1.376-.337-1.713.166-.337.504-.116 1.245.493 1.657.609.412 1.375.337 1.712-.166zM81.401 58.59c.204-1.036-.652-2.077-1.91-2.327s-2.443.387-2.646 1.422c-.204 1.035.652 2.076 1.91 2.326s2.443-.387 2.647-1.422zM101.384 69.376c4.397 0 7.961-3.582 7.961-8 0-4.42-3.564-8.002-7.961-8.002-4.396 0-7.96 3.583-7.96 8.002 0 4.418 3.564 8 7.96 8z" fill="#fff"/>
    <path d="M100.789 65.757c2.695 0 4.88-2.196 4.88-4.905 0-2.71-2.185-4.906-4.88-4.906-2.696 0-4.88 2.197-4.88 4.906 0 2.709 2.184 4.905 4.88 4.905z" fill="#040000"/>
    <path d="M100.313 60.675c1.249-.293 2.068-1.363 1.829-2.39-.238-1.028-1.444-1.623-2.693-1.33-1.249.293-2.068 1.364-1.83 2.39.239 1.028 1.445 1.623 2.694 1.33zM103.551 63.539c.631-.378.892-1.106.583-1.628-.309-.52-1.071-.637-1.701-.26-.631.377-.892 1.106-.583 1.627.309.522 1.071.638 1.701.26z" fill="#fff"/>
    <path d="M106.066 55.385c-1.031 0-2.074-.15-2.931-.612-2.632-1.385-4.532-6.079-4.607-6.278a.622.622 0 1 1 1.155-.462c.012.05 1.813 4.456 4.036 5.63 2.198 1.16 6.358-.2 6.396-.213.323-.112.67.075.782.4a.625.625 0 0 1-.397.786c-.125.05-2.248.749-4.434.749zM73.306 53.624c-2.186 0-4.297-.686-4.433-.736a.636.636 0 0 1-.398-.786c.112-.325.46-.512.782-.4.038.013 4.21 1.373 6.396.212 2.223-1.173 4.011-5.592 4.036-5.63a.622.622 0 1 1 1.155.463c-.074.2-1.974 4.88-4.607 6.278-.857.437-1.9.6-2.93.6z" fill="#DDA13A"/>
    <path d="M87.513 68.19c-3.39 0-5.924 5.081-4.434 8.177.658 1.348 2.074 2.321 4.533 2.321 2.422 0 3.85-1.036 4.508-2.459 1.453-3.108-.832-8.038-4.607-8.038z" fill="#040000"/>
    <path d="M87.624 78.689c1.85 0 3.13-.612 3.912-1.536-.882-1.423-2.297-2.459-4.023-2.459-1.565 0-2.931 1.086-3.826 2.56.795.86 2.062 1.435 3.937 1.435z" fill="#D15F53"/>
    <path opacity=".6" d="M125.863 51.828s3.887-12.233 13.326-9.35c5.253 1.61 3.154 8.576-1.106 9.662-4.669 1.185-9.127-1.935-12.22-.312z" fill="#95D6F1"/>
    <path d="M152.502 59.192s8.594-4.893 12.431 1.71c2.136 3.683-2.682 6.528-5.663 4.893-3.266-1.785-4.173-5.891-6.768-6.603z" fill="#B1D6E9"/>
    <path opacity=".6" d="M101.162 67.143c3.216-.225 5.079-1.423 6.023.449s-2.385 3.582-5.887 3.557c-2.347-.025-6.035-1.21-4.98-3.32 1.056-2.11 2.931-.562 4.844-.686zM72.25 65.57c1.764 1.112 3.205 1.199 2.994 2.534-.211 1.336-2.608.974-4.434-.386-1.23-.912-2.707-2.934-1.353-3.633 1.353-.699 1.738.824 2.794 1.486z" fill="#9BC8E7"/>
    <path d="M112.438 62.35s3.005-9.45 10.282-7.215c4.061 1.248 2.434 6.628-.857 7.464-3.589.911-7.029-1.498-9.425-.25z" fill="#B1D6E9"/>
    <path opacity=".8" d="M131.811 63.186s8.382-8.188 14.753-1.772c3.552 3.582-1.13 8.288-5.042 7.314-4.26-1.073-6.52-5.517-9.711-5.542z" fill="#BADCEA"/>
    <path d="M65.532 58.618s-2.521-7.939-8.631-6.054c-3.403 1.048-2.05 5.567.72 6.266 3.018.749 5.911-1.26 7.91-.212zM36.522 59.916s-6.669-4.943-10.531.187c-2.148 2.858 1.59 5.717 4.235 4.643 2.906-1.16 4.06-4.493 6.296-4.83z" fill="#BADCEA"/>
    <path d="M51.003 46.06S47.6 35.365 39.367 37.899c-4.595 1.41-2.757 7.489.968 8.437 4.061 1.024 7.96-1.697 10.668-.274z" fill="#B1D6E9"/>
    <path opacity=".3" d="M162.882 59.204c-.223-.162-.335 1.286.522 1.935s.695 1.373.472 1.685c-.397.549.05 1.373.745 1.01.41-.211 1.143-2.57-1.739-4.63zM163.745 64.985c.233-.234.264-.582.07-.777-.194-.195-.54-.163-.772.071-.233.234-.265.582-.071.777.194.195.54.163.773-.07z" fill="#E7F2F8"/>
    <path opacity=".9" d="M131.665 50.678c.069-.316-.18-.64-.555-.722-.375-.083-.735.107-.804.424-.069.316.18.64.555.722.375.083.735-.107.804-.424z" fill="#E7F2F8"/>
    <path opacity=".5" d="M98.776 67.923c.07-.316-.18-.64-.555-.722-.375-.082-.735.108-.804.424-.068.317.18.64.555.722.376.083.736-.107.804-.424z" fill="#E7F2F8"/>
    <path opacity=".5" d="M58.446 54.008c.069-.317-.18-.64-.555-.723-.375-.082-.735.108-.804.425-.068.316.18.64.555.722.376.082.735-.108.804-.424z" fill="#fff"/>
    <path opacity=".8" d="M70.521 65.477c.155-.115.172-.356.038-.54-.134-.183-.368-.239-.523-.125-.155.115-.172.356-.038.54.134.183.368.239.523.125z" fill="#E7F2F8"/>
    <path opacity=".5" d="M40.307 45.388c.17-.19.126-.508-.098-.71-.224-.204-.544-.215-.714-.026-.17.19-.126.508.098.711.224.203.544.214.714.025zM71.42 65.733c.099-.074.107-.232.018-.355-.09-.122-.242-.161-.342-.088-.1.073-.108.232-.018.354.089.123.242.162.341.089z" fill="#E7F2F8"/>
    <path opacity=".9" d="M133.898 43.24c1.267-.811 4.819-.899 4.806.774-.012.948-2.148-.574-4.135.212-1.18.474-1.876-.212-.671-.986z" fill="#fff"/>
    <path opacity=".5" d="M38.286 44.064c-.981-.512-1.627-3.32-.596-3.682.894-.313.273 1.897 1.379 2.883.658.587.16 1.298-.783.799zM124.124 59.778c.037.7-.894 1.947-1.664 1.398-.435-.312.857-.549 1.031-1.485.087-.562.596-.574.633.087z" fill="#E7F2F8"/>
    <path d="M30.822 63.798c-.36.599-1.813 1.123-2.148.237-.199-.512 1.018.012 1.677-.674.372-.4.807-.137.471.437z" fill="#E7F2F8"/>
    <path opacity=".8" d="M106.576 69.015c-.41.861-2.348 1.747-2.919.574-.323-.674 1.391-.1 2.198-1.11.497-.612 1.118-.288.721.536z" fill="#E7F2F8"/>
    <path d="M165.881 109.748c0-.961-2.955-1.748-6.594-1.748-2.546 0-4.756.387-5.862.949a37.734 37.734 0 0 0-2.086-.062c-5.154 0-9.339 1.111-9.339 2.471 0 1.361 4.185 2.472 9.339 2.472 5.03 0 9.128-1.061 9.326-2.372 2.981-.175 5.216-.874 5.216-1.71z" fill="#CFE0EA"/>
    <path d="M165.558 109.237c.038.075.087.15.087.224 0 .824-2.185 1.511-5.116 1.673-.186 1.298-4.198 2.322-9.14 2.322-5.055 0-9.153-1.086-9.153-2.422 0-.1.037-.212.087-.312-.199.2-.323.412-.323.637 0 1.36 4.185 2.471 9.339 2.471 5.03 0 9.128-1.061 9.326-2.371 2.981-.163 5.216-.874 5.216-1.71 0-.188-.124-.35-.323-.512z" fill="#8BB5CC"/>
    <path d="M19.322 110.156h-.67c0-.65-3.031-1.186-6.782-1.186-3.75 0-6.78.524-6.78 1.186 0 .449 1.49.848 3.651 1.048-.658.225-1.03.462-1.03.724 0 .974 5.203 1.772 11.61 1.772 6.409 0 11.612-.786 11.612-1.772s-5.19-1.772-11.611-1.772z" fill="#B8CED8"/>
    <path d="M27.381 110.655c1.801.312 2.894.724 2.894 1.161 0 .974-5.204 1.773-11.612 1.773-3.13 0-5.973-.188-8.06-.5 2.124.375 5.241.599 8.719.599 6.408 0 11.611-.786 11.611-1.772.012-.487-1.354-.936-3.552-1.261z" fill="#8BB5CC"/>
    <path d="M43.179 107.609c2.71 0 4.905-.469 4.905-1.048 0-.579-2.196-1.049-4.905-1.049-2.71 0-4.906.47-4.906 1.049s2.197 1.048 4.906 1.048z" fill="#ACCEDF"/>
    <path opacity=".3" d="M19.596 110.493s7.712.05 9.351 1.011c1.64.961-5.452 1.448-5.452 1.448s5.229-.624 4-1.36c-1.218-.724-7.9-1.099-7.9-1.099zM6.42 110.493c.431 0 .781-.09.781-.2 0-.11-.35-.2-.782-.2-.432 0-.782.09-.782.2 0 .11.35.2.782.2zM45.836 106.91c.748 0 1.354-.156 1.354-.349 0-.193-.606-.35-1.354-.35-.747 0-1.354.157-1.354.35 0 .193.607.349 1.354.349z" fill="#fff"/>
    <path opacity=".5" d="M146.62 109.611c-.596.075-2.918.611-3.018 1.298-.099.686 2.621 2.609 11.686 1.91 0 0-10.32-.163-10.754-1.798-.261-.973 2.086-1.41 2.086-1.41z" fill="#fff"/>
    <path opacity=".3" d="M142.75 67.222c.117-.538-.305-1.088-.941-1.228-.637-.14-1.248.184-1.365.723-.117.539.304 1.089.941 1.228.637.14 1.248-.184 1.365-.723z" fill="#fff"/>
</svg>
