<svg width="360" height="106" viewBox="0 0 360 106" fill="none" xmlns="http://www.w3.org/2000/svg">
<g opacity="0.2" filter="url(#filter0_f_3218_67056)">
<path fill-rule="evenodd" clip-rule="evenodd" d="M351.245 82.055C351.623 82.3447 352.164 82.2735 352.454 81.8959C352.744 81.5183 352.672 80.9773 352.295 80.6875L351.884 80.3726L352.269 79.8707C352.559 79.4931 352.488 78.9521 352.11 78.6623C351.733 78.3725 351.192 78.4438 350.902 78.8214L350.517 79.3232L350.016 78.9386C349.638 78.6488 349.097 78.7201 348.807 79.0977C348.517 79.4753 348.589 80.0163 348.966 80.3061L349.468 80.6907L349.153 81.1005C348.863 81.4782 348.935 82.0192 349.312 82.309C349.69 82.5987 350.231 82.5275 350.521 82.1499L350.835 81.74L351.245 82.055Z" fill="#D2D628" fill-opacity="0.5"/>
</g>
<g opacity="0.2" filter="url(#filter1_f_3218_67056)">
<path fill-rule="evenodd" clip-rule="evenodd" d="M233.384 88.4682C233.021 88.197 232.954 87.6887 233.234 87.3329L234.907 85.2082C235.187 84.8524 235.708 84.7839 236.07 85.0551C236.377 85.2849 236.472 85.6849 236.324 86.0181C236.554 85.9686 236.804 86.0146 237.004 86.1649C237.077 86.2193 237.138 86.2833 237.186 86.3536L237.309 86.1979C237.589 85.8421 238.11 85.7736 238.472 86.0448C238.835 86.316 238.902 86.8243 238.622 87.18L236.95 89.3048C236.67 89.6605 236.149 89.7291 235.786 89.4579C235.713 89.4035 235.653 89.3395 235.604 89.2692L235.146 89.8516C234.866 90.2073 234.345 90.2759 233.982 90.0047C233.62 89.7334 233.553 89.2252 233.833 88.8694L234.028 88.622C233.808 88.6592 233.574 88.6105 233.384 88.4682Z" fill="#2C8867" fill-opacity="0.5"/>
</g>
<g opacity="0.2" filter="url(#filter2_f_3218_67056)">
<path fill-rule="evenodd" clip-rule="evenodd" d="M18.8759 3.29884C18.8759 2.85334 19.2371 2.49219 19.6826 2.49219H22.4819C22.9274 2.49219 23.2886 2.85334 23.2886 3.29884C23.2886 3.6793 23.0252 3.99823 22.6708 4.08326C22.8442 4.23122 22.9542 4.45137 22.9542 4.69722C22.9542 4.7865 22.9397 4.87239 22.9129 4.95267H23.1384C23.5839 4.95267 23.945 5.31381 23.945 5.75931C23.945 6.2048 23.5839 6.56595 23.1384 6.56595H20.339C19.8935 6.56595 19.5324 6.2048 19.5324 5.75931C19.5324 5.67003 19.5469 5.58415 19.5736 5.50388H18.7966C18.3511 5.50388 17.99 5.14272 17.99 4.69722C17.99 4.25172 18.3511 3.89056 18.7966 3.89056H19.1343C18.9754 3.74323 18.8759 3.53266 18.8759 3.29884Z" fill="#2C8867" fill-opacity="0.5"/>
</g>
<path opacity="0.5" fill-rule="evenodd" clip-rule="evenodd" d="M271.022 55.0936C271.19 54.8745 271.504 54.8332 271.723 55.0013L272.487 55.5871L272.511 54.9616C272.522 54.6857 272.744 54.3957 273.008 54.3139C273.272 54.2321 273.477 54.3895 273.466 54.6654L273.418 55.903L274.602 55.5359C274.865 55.4541 275.07 55.6114 275.06 55.8874C275.049 56.1633 274.826 56.4533 274.563 56.5351L273.964 56.7207L274.726 57.3055C274.945 57.4736 274.986 57.7875 274.818 58.0065C274.65 58.2256 274.336 58.2669 274.117 58.0988L273.355 57.514L273.331 58.1396C273.32 58.4156 273.097 58.7056 272.834 58.7874C272.57 58.8692 272.365 58.7118 272.376 58.4359L272.424 57.1984L271.242 57.565C270.978 57.6469 270.773 57.4895 270.784 57.2135C270.794 56.9376 271.017 56.6476 271.281 56.5658L271.878 56.3805L271.115 55.7947C270.895 55.6266 270.854 55.3127 271.022 55.0936Z" fill="white" fill-opacity="0.5"/>
<g clip-path="url(#clip0_3218_67056)">
<path d="M297.754 51.8865C297.513 51.8853 297.275 51.8255 297.062 51.7121C296.724 51.5277 296.472 51.2164 296.363 50.8467C296.254 50.477 296.297 50.0791 296.481 49.7406L317.37 11.3111C317.459 11.1384 317.581 10.9852 317.729 10.8604C317.878 10.7357 318.05 10.6419 318.235 10.5847C318.421 10.5275 318.616 10.5079 318.809 10.5272C319.002 10.5465 319.189 10.6042 319.36 10.697C319.53 10.7898 319.68 10.9157 319.801 11.0674C319.922 11.219 320.011 11.3934 320.064 11.5801C320.116 11.7669 320.131 11.9623 320.107 12.1548C320.083 12.3473 320.02 12.533 319.923 12.701L299.034 51.1596C298.904 51.3828 298.717 51.5676 298.492 51.6953C298.267 51.8229 298.013 51.8889 297.754 51.8865Z" fill="#9B5100"/>
<path d="M223.565 49.1588C223.612 49.0893 223.637 49.0072 223.637 48.9232C223.637 48.8392 223.612 48.7571 223.565 48.6877C222.937 47.827 222.303 44.2853 222.983 40.604C223.71 36.7192 228.927 32.6832 229.962 32.0609C230.004 32.0377 230.037 32.0007 230.055 31.9563C230.073 31.9118 230.075 31.8625 230.061 31.8166C229.735 30.6942 227.926 23.9365 230.107 20.0575C232.224 16.289 237.668 13.4161 238.697 13.2765C238.807 13.2765 238.575 13.4684 238.569 13.3579C238.569 12.1948 240.639 8.36231 243.274 5.96628C245.908 3.57025 252.032 4.16925 253.102 4.50656C253.142 4.51989 253.185 4.52093 253.225 4.50952C253.266 4.49811 253.302 4.47479 253.329 4.4426C253.945 3.70401 259.209 0.778757 263.553 1.0172C263.687 1.0172 269.211 0.831105 272.939 2.86075C276.428 4.76245 279.197 10.642 279.581 11.4969C279.595 11.5287 279.616 11.5565 279.644 11.5778C279.671 11.5991 279.703 11.6133 279.738 11.619C282.348 11.5672 284.896 12.4199 286.949 14.0325C290.508 16.8589 290.909 22.6222 291.066 23.3084C291.072 23.3345 291.082 23.3593 291.097 23.3813C291.112 23.4032 291.131 23.422 291.154 23.4363C291.689 23.7853 292.084 24.8205 294.335 27.8097C296.492 30.6651 294.719 35.5619 294.55 36.5331C294.541 36.5861 294.552 36.6405 294.581 36.6857C294.61 36.7309 294.655 36.7636 294.707 36.7773C295.289 36.9227 296.952 37.6031 298.685 40.5807C300.592 43.8607 298.231 48.8273 298.039 49.7636C298.03 49.8091 298.036 49.8563 298.056 49.8983C298.076 49.9402 298.109 49.9745 298.15 49.9962C298.621 50.2521 300.11 51.1186 300.72 52.1712C301.447 53.4274 298.72 56.5911 298.574 58.33C298.487 59.3709 297.952 59.6094 297.539 59.6327C297.483 59.6369 297.429 59.6533 297.38 59.6806C297.331 59.708 297.289 59.7458 297.257 59.7912C297.224 59.8367 297.201 59.8887 297.191 59.9437C297.181 59.9987 297.182 60.0553 297.196 60.1095C297.325 60.5074 297.347 60.9323 297.258 61.3411C297.169 61.7498 296.973 62.1276 296.69 62.4358C296.05 63.1046 295.015 62.9476 294.224 62.4707C293.945 62.302 293.811 62.7556 293.486 62.7615C292.997 62.7615 293.433 62.7615 293.334 62.7615C293.334 62.7615 292.916 62.7905 292.328 62.0868C292.235 61.9705 292.387 62.0519 292.328 62.1799L291.165 64.0641C291.122 64.14 291.104 64.2274 291.113 64.3142C291.363 66.9719 286.46 80.5223 284.931 81.2434C283.186 82.0402 270.566 81.9646 269.81 81.3016C269.229 80.7898 271.555 77.0271 271.27 74.7125C271.265 74.6781 271.252 74.6454 271.232 74.6169C271.213 74.5884 271.186 74.565 271.156 74.5486C271.125 74.5322 271.091 74.5232 271.056 74.5224C271.022 74.5215 270.987 74.5289 270.956 74.5439C270.38 74.745 269.775 74.8491 269.165 74.8521H268.159C267.811 74.781 267.473 74.6677 267.153 74.5148C267.246 75.8 268.897 79.1673 267.827 80.2257C266.664 81.3888 243.948 82.6799 242.89 80.9585C240.755 77.9989 239.044 74.7553 237.807 71.322C237.761 71.1883 235.37 64.7329 235.231 64.7678C234.952 64.8376 232.544 67.7919 230.526 67.0941C230.061 66.937 229.694 65.8321 229.491 65.0819C229.479 65.047 229.457 65.0166 229.427 64.995C229.398 64.9735 229.362 64.9619 229.325 64.9619C229.288 64.9619 229.252 64.9735 229.223 64.995C229.193 65.0166 229.171 65.047 229.159 65.0819C228.752 66.1171 227.682 67.1464 226.542 66.9836C225.798 66.8789 225.478 65.8204 225.344 64.8202C225.333 64.7443 225.3 64.6733 225.249 64.6159C225.198 64.5584 225.132 64.517 225.058 64.4967C224.984 64.4763 224.906 64.4779 224.833 64.5013C224.76 64.5247 224.695 64.5688 224.646 64.6283C224.46 64.8857 224.224 65.1035 223.952 65.2692C223.681 65.4349 223.379 65.5452 223.065 65.5937C221.174 65.8902 221.75 64.1572 221.116 59.3884C220.482 54.6196 222.797 50.4091 223.565 49.1588Z" fill="#F5BB4B"/>
<path d="M277.836 42.3896C282.371 42.3896 286.047 38.7131 286.047 34.1779C286.047 29.6428 282.371 25.9663 277.836 25.9663C273.301 25.9663 269.624 29.6428 269.624 34.1779C269.624 38.7131 273.301 42.3896 277.836 42.3896Z" fill="white"/>
<path d="M280.249 38.0804C282.225 38.0804 283.826 36.4791 283.826 34.5038C283.826 32.5285 282.225 30.9272 280.249 30.9272C278.274 30.9272 276.673 32.5285 276.673 34.5038C276.673 36.4791 278.274 38.0804 280.249 38.0804Z" fill="#040000"/>
<path d="M262.25 42.814C266.727 42.814 270.357 39.1844 270.357 34.707C270.357 30.2297 266.727 26.6001 262.25 26.6001C257.773 26.6001 254.143 30.2297 254.143 34.707C254.143 39.1844 257.773 42.814 262.25 42.814Z" fill="white"/>
<path d="M264.192 38.7723C266.168 38.7723 267.769 37.171 267.769 35.1957C267.769 33.2204 266.168 31.6191 264.192 31.6191C262.217 31.6191 260.616 33.2204 260.616 35.1957C260.616 37.171 262.217 38.7723 264.192 38.7723Z" fill="#040000"/>
<path d="M272.84 41.5288L267.949 41.6742C267.949 41.6742 267.187 47.6817 270.898 47.0362C274.608 46.3907 272.84 41.5288 272.84 41.5288Z" fill="#040000"/>
<path d="M267.944 44.0005C268.337 43.6905 268.813 43.5023 269.312 43.4589C269.811 43.4155 270.311 43.5188 270.753 43.7562C272.148 44.396 272.305 45.5009 272.003 46.6641C271.663 46.8644 271.288 46.9986 270.898 47.0595C268.781 47.4085 268.124 45.6114 267.944 44.0005Z" fill="#D05E53"/>
<path d="M239.022 52.2646C239.022 52.2646 240.476 57.1498 241.273 68.1296C241.273 68.1296 246.647 79.5573 251.689 81.5695C247.659 81.9068 243.291 81.6276 242.878 80.9588C242.111 79.7085 239.255 75.5213 237.795 71.3224C237.749 71.1886 235.696 66.0883 235.556 66.0883C235.556 66.0883 237.231 67.141 237.574 63.4015C237.917 59.6621 239.022 52.2646 239.022 52.2646Z" fill="#E9AA3E"/>
<path d="M277.219 81.831C273.841 81.7787 270.124 81.6275 269.81 81.296C268.153 79.5513 269.81 78.5277 269.81 76.1957C269.81 75.8584 269.944 74.7825 269.81 74.8523L279.22 70.1475C279.22 70.1475 276.173 77.1436 277.219 81.831Z" fill="#E9AA3E"/>
<g opacity="0.2">
<path opacity="0.2" d="M232.864 20.5462C233.358 21.401 236.795 20.6392 238.47 19.6738C240.145 18.7084 241.105 17.2254 240.61 16.3706C240.116 15.5157 238.36 15.6029 236.679 16.5741C234.998 17.5453 232.393 19.6854 232.864 20.5462Z" fill="white"/>
</g>
<path d="M280.249 34.5036C280.439 34.5036 280.592 34.35 280.592 34.1605C280.592 33.971 280.439 33.8174 280.249 33.8174C280.06 33.8174 279.906 33.971 279.906 34.1605C279.906 34.35 280.06 34.5036 280.249 34.5036Z" fill="white"/>
<path d="M264.483 35.4226C264.673 35.4226 264.826 35.2689 264.826 35.0794C264.826 34.8899 264.673 34.7363 264.483 34.7363C264.294 34.7363 264.14 34.8899 264.14 35.0794C264.14 35.2689 264.294 35.4226 264.483 35.4226Z" fill="white"/>
<path d="M320.15 12.9338L333.753 31.1773C333.834 31.2853 333.883 31.4138 333.895 31.5482C333.907 31.6827 333.882 31.8179 333.821 31.9386C333.761 32.0594 333.668 32.1609 333.553 32.2319C333.439 32.3029 333.306 32.3405 333.171 32.3405L309.793 31.9043C309.663 31.906 309.536 31.8732 309.424 31.8092C309.311 31.7453 309.218 31.6526 309.153 31.5406C309.089 31.4286 309.055 31.3014 309.056 31.1721C309.057 31.0429 309.092 30.9162 309.159 30.8051L318.935 12.9919C318.996 12.8878 319.082 12.8006 319.185 12.7381C319.289 12.6756 319.406 12.6399 319.527 12.6341C319.647 12.6284 319.767 12.6527 319.876 12.7051C319.985 12.7574 320.079 12.836 320.15 12.9338Z" fill="white"/>
</g>
<g clip-path="url(#clip1_3218_67056)">
<path d="M203.128 40.4397C201 36.7526 201.709 33.9902 198.714 30.6055C198.62 30.4992 198.51 30.4071 198.389 30.3322C197.467 29.7698 196.511 29.2649 195.527 28.8201C191.294 27.3372 188.741 27.657 184.251 27.657C179.761 27.657 177.028 26.2729 171.573 28.1571L171.416 28.2211C171.067 28.3781 170.73 28.5468 170.392 28.7213C169.962 28.9422 169.537 29.1691 169.125 29.4133C169.074 29.4429 169.025 29.4759 168.979 29.5122C165.449 32.1176 165.147 34.2926 163.652 38.2356C162.059 42.4519 160.576 46.6449 160.163 50.9601C160.134 51.322 160.134 51.6857 160.163 52.0476C160.913 63.958 169.945 67.331 183.53 67.331C195.51 67.331 200.476 67.4066 204.664 60.4977C205.102 59.7766 205.532 58.9779 205.955 58.1017C206.352 57.284 206.576 56.393 206.612 55.4847C206.885 48.6571 205.338 44.2605 203.128 40.4397Z" fill="#709BD1"/>
<path d="M188.403 62.1437C174.818 62.1437 165.786 58.7706 165.036 46.8603C165.007 46.4983 165.007 46.1347 165.036 45.7727C165.455 41.4576 166.938 37.2645 168.526 33.0482C169.206 31.2512 169.636 29.8205 170.27 28.5527C169.84 28.7737 169.415 29.0005 169.002 29.2448C168.952 29.2744 168.903 29.3074 168.857 29.3437C165.327 31.9491 165.025 34.1241 163.53 38.0671C161.936 42.2834 160.454 46.4764 160.041 50.7916C160.012 51.1535 160.012 51.5172 160.041 51.8791C160.756 63.7779 169.793 67.1742 183.379 67.1742C195.359 67.1742 200.325 67.2498 204.513 60.3408C200.948 62.1727 196.132 62.1437 188.403 62.1437Z" fill="#5A80A5"/>
<path d="M206.461 55.3219C206.746 48.4711 205.199 44.0804 202.971 40.2595C200.843 36.5724 201.552 33.81 198.557 30.4253C198.463 30.319 198.353 30.2269 198.232 30.152C197.31 29.5897 196.354 29.0847 195.37 28.6399C191.137 27.157 188.584 27.4768 184.094 27.4768C179.604 27.4768 176.871 26.0927 171.416 27.977L171.259 28.0409C170.91 28.198 170.573 28.3666 170.235 28.5411C169.654 29.8089 169.2 31.2395 168.491 33.0366C166.897 37.2529 165.414 41.4459 165.001 45.7611C164.972 46.123 164.972 46.4867 165.001 46.8486C165.752 58.759 174.783 62.132 188.368 62.132C196.103 62.132 200.913 62.1611 204.478 60.3233C204.916 59.6022 205.346 58.8035 205.769 57.9273C206.179 57.1168 206.415 56.2292 206.461 55.3219Z" fill="#709BD1"/>
<path d="M185.894 42.8833C186.019 42.0707 185.578 41.3283 184.908 41.2252C184.238 41.1221 183.594 41.6973 183.469 42.51C183.344 43.3226 183.785 44.065 184.455 44.1681C185.125 44.2712 185.769 43.696 185.894 42.8833Z" fill="#222222"/>
<path d="M197.479 43.0444C197.607 42.2127 197.158 41.4533 196.475 41.3482C195.793 41.2432 195.136 41.8323 195.008 42.664C194.88 43.4957 195.329 44.2551 196.012 44.3601C196.694 44.4652 197.351 43.8761 197.479 43.0444Z" fill="#222222"/>
<path d="M187.74 46.139C188.363 45.7319 189.072 46.139 190.142 46.1971C191.212 46.2553 193.137 45.412 193.94 46.0169C194.742 46.6217 194.742 50.2099 190.834 50.6693C186.926 51.1288 186.228 48.5292 186.839 47.0927C187.124 46.4065 187.374 46.3774 187.74 46.139Z" fill="#2F4564"/>
<path d="M190.008 48.506C189.504 48.4946 189.006 48.6268 188.574 48.8873C188.141 49.1478 187.792 49.5258 187.566 49.9774C188.223 50.5008 189.27 50.809 190.834 50.6403C191.781 50.578 192.679 50.1967 193.381 49.5586C192.418 48.818 191.222 48.4448 190.008 48.506Z" fill="#D05E53"/>
<g opacity="0.2">
<path opacity="0.2" d="M197.282 32.5726C197.634 31.9634 196.951 30.9111 195.758 30.2221C194.565 29.5332 193.312 29.4685 192.961 30.0777C192.609 30.6868 193.291 31.7392 194.484 32.4281C195.678 33.1171 196.93 33.1817 197.282 32.5726Z" fill="white"/>
</g>
</g>
<g clip-path="url(#clip2_3218_67056)">
<path d="M119.025 68.0847C121.366 68.4445 123.746 68.4622 126.091 68.137C126.209 68.1202 126.33 68.13 126.444 68.1658C126.557 68.2016 126.662 68.2626 126.749 68.344C126.836 68.4255 126.903 68.5255 126.947 68.6367C126.99 68.7478 127.008 68.8672 126.999 68.9861C126.911 70.2306 126.865 71.039 126.882 71.1088C126.894 71.7846 127.064 72.4481 127.381 73.0453C127.697 73.6426 128.15 74.1567 128.703 74.5458C130.552 75.8369 132.314 77.4187 132.413 78.9482C132.413 79.146 132.413 79.3263 132.413 79.4949C132.409 79.6881 132.366 79.8784 132.284 80.0534C132.202 80.2285 132.084 80.3844 131.939 80.5111C131.793 80.6377 131.622 80.7323 131.437 80.7887C131.252 80.8451 131.058 80.862 130.866 80.8383L119.281 79.4716C118.949 79.4391 118.642 79.2793 118.426 79.0255C118.209 78.7718 118.099 78.444 118.118 78.1108L118.764 68.0498L119.025 68.0847Z" fill="#D9E37A"/>
<path d="M118.816 68.0498L119.025 68.0847C121.694 68.4956 124.412 68.4602 127.068 67.98C126.94 69.777 126.865 71.0157 126.882 71.103C126.9 71.1902 126.911 71.3472 126.934 71.5566C124.181 72.1021 121.354 72.1709 118.577 71.7601L118.816 68.0498Z" fill="#C7CB71"/>
<path d="M115.17 74.5694C115.036 74.4589 116.24 70.8939 117.031 68.7014C117.275 68.0326 116.618 67.3173 115.751 67.3057C113.712 67.2906 111.676 67.1391 109.656 66.8521C109.388 66.7897 109.107 66.8244 108.862 66.95C108.617 67.0757 108.425 67.2841 108.319 67.5383L105.301 77.0875C105.272 77.242 105.277 77.4006 105.314 77.5532C105.35 77.7059 105.418 77.8492 105.514 77.974C105.609 78.0988 105.729 78.2023 105.867 78.278C106.004 78.3537 106.156 78.3998 106.312 78.4135L117.362 80.8967C117.647 80.9788 117.953 80.9486 118.217 80.8124C118.481 80.6761 118.683 80.4441 118.781 80.164C118.847 79.9058 118.822 79.6327 118.711 79.3905C117.635 77.7091 116.452 76.0988 115.17 74.5694Z" fill="#D9E37A"/>
<path d="M107.615 69.8237C110.513 70.3411 113.454 70.569 116.397 70.5041C116.699 69.6085 117.1 68.4977 117.56 67.2881C114.559 67.3971 111.554 67.2023 108.592 66.7065L107.615 69.8237Z" fill="#C7CB71"/>
<path d="M92.826 50.4984C92.1107 47.9105 92.1339 45.2644 92.1339 42.3566C92.1339 27.4977 103.259 15.1977 117.193 15.0232C131.372 14.8313 142.922 27.0266 142.922 42.0949C142.922 45.4621 142.922 48.2652 141.846 51.237C142.538 53.0313 142.931 54.9272 143.009 56.849C143.009 60.92 138.938 64.0313 136.03 64.6129L131.378 65.776C127.563 68.2127 124.12 69.1723 119.351 69.1723C114.582 69.1723 108.301 67.7708 104.486 65.3282H97.1645C94.7859 65.2817 91.0115 62.2866 91.0115 58.2448C91.0115 55.872 91.0523 53.4586 92.4364 52.0454C92.63 51.8435 92.7678 51.5947 92.8361 51.3235C92.9044 51.0523 92.9009 50.7679 92.826 50.4984Z" fill="#D9E37A"/>
<path d="M92.4248 52.0279C92.6175 51.829 92.7553 51.5835 92.8246 51.3154C92.8939 51.0473 92.8924 50.7658 92.8203 50.4984C92.105 47.9104 92.1282 45.2644 92.1282 42.3565C92.0902 35.0239 94.8912 27.961 99.9444 22.6475C96.5716 27.8784 94.7749 33.9692 94.7685 40.1931C94.7685 43.7174 94.7394 46.9683 95.7048 50.1204C95.8016 50.4503 95.8028 50.8009 95.7081 51.1314C95.6133 51.4619 95.4267 51.7587 95.1698 51.9872C93.2972 53.7319 93.239 56.6397 93.239 59.5475C93.2829 61.5198 94.0461 63.4081 95.385 64.8571C93.2623 63.8627 91 61.3678 91 58.239C91.0233 55.8546 91.0232 53.4469 92.4248 52.0279Z" fill="#C7CB71"/>
<g opacity="0.5">
<path opacity="0.5" d="M135.302 46.7476C136.616 46.5965 137.647 46.1713 137.604 45.798C137.561 45.4246 136.461 45.2445 135.146 45.3957C133.832 45.5469 132.801 45.9721 132.844 46.3454C132.887 46.7187 133.987 46.8988 135.302 46.7476Z" fill="#E44C6C"/>
</g>
<g opacity="0.5">
<path opacity="0.5" d="M113.566 47.5162C114.881 47.365 115.912 46.9398 115.869 46.5665C115.826 46.1932 114.725 46.0131 113.411 46.1643C112.096 46.3154 111.065 46.7406 111.108 47.114C111.151 47.4873 112.252 47.6674 113.566 47.5162Z" fill="#E44C6C"/>
</g>
<path d="M129.139 43.9616C131.747 43.9616 133.861 41.8474 133.861 39.2394C133.861 36.6313 131.747 34.5171 129.139 34.5171C126.531 34.5171 124.416 36.6313 124.416 39.2394C124.416 41.8474 126.531 43.9616 129.139 43.9616Z" fill="white"/>
<path d="M129.773 41.8563C131.372 41.8563 132.669 40.5596 132.669 38.9601C132.669 37.3606 131.372 36.064 129.773 36.064C128.173 36.064 126.876 37.3606 126.876 38.9601C126.876 40.5596 128.173 41.8563 129.773 41.8563Z" fill="#040000"/>
<path d="M115.745 44.3923C118.353 44.3923 120.468 42.2781 120.468 39.67C120.468 37.062 118.353 34.9478 115.745 34.9478C113.137 34.9478 111.023 37.062 111.023 39.67C111.023 42.2781 113.137 44.3923 115.745 44.3923Z" fill="white"/>
<path d="M116.606 42.4149C118.206 42.4149 119.502 41.1182 119.502 39.5187C119.502 37.9192 118.206 36.6226 116.606 36.6226C115.007 36.6226 113.71 37.9192 113.71 39.5187C113.71 41.1182 115.007 42.4149 116.606 42.4149Z" fill="#040000"/>
<g opacity="0.2">
<path opacity="0.2" d="M130.7 22.3158C131.055 21.5993 129.82 20.2632 127.941 19.3317C126.062 18.4001 124.251 18.2258 123.895 18.9423C123.54 19.6589 124.775 20.9949 126.655 21.9265C128.534 22.8581 130.345 23.0324 130.7 22.3158Z" fill="white"/>
</g>
<path d="M117.618 46.8344C118.781 44.2058 128.028 43.3451 128.813 45.4852C129.458 47.2299 128.324 49.3526 126.801 50.8414C126.219 49.5503 125.108 47.8812 123.213 48.0499C121.317 48.2185 120.252 49.9283 119.688 51.231C118.112 50.0388 116.943 48.3174 117.618 46.8344Z" fill="#38391B"/>
<path d="M123.213 48.0502C125.109 47.8758 126.225 49.5448 126.801 50.8417C125.696 51.9176 124.387 52.662 123.393 52.7144C122.398 52.7667 120.898 52.1328 119.683 51.2314C120.247 49.9287 121.34 48.2189 123.213 48.0502Z" fill="#D05E53"/>
</g>
<g clip-path="url(#clip3_3218_67056)">
<path d="M70.7433 47.4925C72.645 51.703 71.4295 55.6344 72.0227 58.0188C72.6973 60.6998 76.4193 61.7233 74.7561 67.4924C72.1274 76.6113 61.9617 83.8691 50.2433 80.6415C38.5249 77.4138 29.9527 64.4974 34.0352 51.6274C37.4548 40.8337 47.3064 35.0355 58.3968 38.2515C61.9559 39.2518 68.4636 42.4388 70.7433 47.4925Z" fill="#AAD6B3"/>
<path d="M38.9669 60.5312C38.5957 59.093 37.9052 57.757 36.9467 56.6223C35.9882 55.4876 34.7864 54.5835 33.4304 53.9771C31.017 66.0328 39.246 77.6058 50.2433 80.6358C51.5764 81.0041 52.9382 81.259 54.3143 81.3976C41.927 77.0534 40.3626 65.6606 38.9669 60.5312Z" fill="#95BC9C"/>
<path d="M54.931 57.8387C55.0976 57.1223 54.7558 56.4307 54.1677 56.2939C53.5795 56.1571 52.9677 56.627 52.8011 57.3435C52.6346 58.0599 52.9763 58.7515 53.5644 58.8882C54.1526 59.025 54.7644 58.5551 54.931 57.8387Z" fill="#222222"/>
<path d="M68.3982 58.4826C68.5684 57.7505 68.2194 57.0438 67.6188 56.9042C67.0181 56.7645 66.3932 57.2447 66.223 57.9768C66.0528 58.7088 66.4017 59.4155 67.0024 59.5551C67.603 59.6948 68.2279 59.2146 68.3982 58.4826Z" fill="#222222"/>
<path d="M55.8205 61.223C56.844 59.0538 59.3505 61.8918 61.6361 61.9151C63.9216 61.9383 64.7823 60.0192 66.5095 61.0544C68.545 62.2756 67.0911 65.8522 62.7236 66.87C58.3561 67.8877 54.1979 64.6658 55.8205 61.223Z" fill="#323D33"/>
<path d="M63.7007 66.5854C60.1008 64.4918 57.3326 64.0207 55.6868 63.9858C56.5242 66.1434 59.5541 67.5973 62.7062 66.8936C63.0431 66.8092 63.3751 66.7063 63.7007 66.5854Z" fill="#D05E53"/>
<g opacity="0.2">
<path opacity="0.2" d="M66.9722 44.5742C67.3077 44.0415 66.4472 42.8966 65.0502 42.0168C63.6532 41.1371 62.2488 40.8558 61.9133 41.3885C61.5779 41.9212 62.4384 43.0662 63.8354 43.9459C65.2324 44.8256 66.6368 45.1069 66.9722 44.5742Z" fill="white"/>
</g>
</g>
<path d="M-2 63C-0.161778 70.5765 10.2272 85.7294 29.0773 85.7294H323.36C335.726 85.4 363.567 88.7929 376 105" stroke="#EA4579" stroke-width="2"/>
<path d="M136 97.5H311.5C320.167 97.8333 336.5 98.5 343.5 104.5" stroke="#B7B7B7" stroke-miterlimit="2.85812" stroke-linecap="round" stroke-linejoin="round" stroke-dasharray="4 4"/>
<defs>
<filter id="filter0_f_3218_67056" x="346.629" y="76.4844" width="8.0029" height="8.00293" filterUnits="userSpaceOnUse" color-interpolation-filters="sRGB">
<feFlood flood-opacity="0" result="BackgroundImageFix"/>
<feBlend mode="normal" in="SourceGraphic" in2="BackgroundImageFix" result="shape"/>
<feGaussianBlur stdDeviation="1" result="effect1_foregroundBlur_3218_67056"/>
</filter>
<filter id="filter1_f_3218_67056" x="231.061" y="82.8892" width="9.73343" height="9.28125" filterUnits="userSpaceOnUse" color-interpolation-filters="sRGB">
<feFlood flood-opacity="0" result="BackgroundImageFix"/>
<feBlend mode="normal" in="SourceGraphic" in2="BackgroundImageFix" result="shape"/>
<feGaussianBlur stdDeviation="1" result="effect1_foregroundBlur_3218_67056"/>
</filter>
<filter id="filter2_f_3218_67056" x="15.99" y="0.492188" width="9.95502" height="8.07373" filterUnits="userSpaceOnUse" color-interpolation-filters="sRGB">
<feFlood flood-opacity="0" result="BackgroundImageFix"/>
<feBlend mode="normal" in="SourceGraphic" in2="BackgroundImageFix" result="shape"/>
<feGaussianBlur stdDeviation="1" result="effect1_foregroundBlur_3218_67056"/>
</filter>
<clipPath id="clip0_3218_67056">
<rect width="112.898" height="80.8252" fill="white" transform="translate(221 1)"/>
</clipPath>
<clipPath id="clip1_3218_67056">
<rect width="46.6295" height="40.3545" fill="white" transform="translate(160 27)"/>
</clipPath>
<clipPath id="clip2_3218_67056">
<rect width="52.0089" height="65.9199" fill="white" transform="translate(91 15)"/>
</clipPath>
<clipPath id="clip3_3218_67056">
<rect width="42.1747" height="44.059" fill="white" transform="translate(33 37.3618)"/>
</clipPath>
</defs>
</svg>
