<svg width="248" height="58" viewBox="0 0 248 58" fill="none" xmlns="http://www.w3.org/2000/svg">
<path d="M34.8774 44.1336C39.5486 43.0458 43.6526 40.2633 46.3985 36.3226C47.6809 34.4822 48.6246 32.45 49.2063 30.3206C50.1506 25.5254 46.1706 23.1853 43.4108 23.5844C42.2692 23.6877 39.7563 24.5268 38.8773 27.4941C38.6158 28.456 38.2246 29.3644 37.6456 30.1955C36.4099 31.9688 34.5631 33.2209 32.4611 33.7104C30.359 34.2 28.1506 33.8923 26.2615 32.8467C24.3724 31.8011 22.9363 30.0916 22.23 28.0478C21.5237 26.0039 21.5973 23.7703 22.4365 21.7776C23.2757 19.7849 24.8212 18.174 26.775 17.2556C28.7288 16.3371 30.9526 16.1761 33.0179 16.8035C33.9937 17.1 34.9014 17.5625 35.7053 18.1633C38.1453 19.9147 40.7351 19.0477 41.725 18.3953C45.941 15.1844 43.7881 10.9826 42.1669 9.64457C40.3608 8.28024 38.3157 7.23137 36.1148 6.56273C31.5254 5.16846 26.5835 5.5263 22.2417 7.56728C17.8998 9.60827 14.4655 13.1879 12.6006 17.6162C10.7356 22.0445 10.5722 27.008 12.1417 31.5499C13.7112 36.0919 16.9025 39.8907 21.1006 42.2143C25.2986 44.5378 30.2062 45.2215 34.8774 44.1336Z" fill="#EA4579"/>
<path d="M26.7746 17.2554C28.7284 16.337 30.9522 16.1759 33.0175 16.8034C33.0713 16.8197 33.1157 16.8333 33.1782 16.8539C29.2299 17.5602 26.7956 19.3135 24.9603 21.031C21.6169 24.5229 22.4983 28.5452 23.2933 30.1536C22.8489 29.5079 22.4897 28.8005 22.2296 28.0476C21.9556 27.2547 21.7989 26.4333 21.7588 25.6084C21.6956 24.307 21.9224 22.9971 22.4361 21.7774C23.2753 19.7847 24.8207 18.1738 26.7746 17.2554Z" fill="#B51849"/>
<path d="M35.7055 18.1636C38.1455 19.915 40.7353 19.0481 41.7253 18.3957C45.8746 15.2355 43.8548 11.1155 42.2444 9.71051L41.2193 8.97247C41.2193 8.97247 43.2524 12.0452 41.9218 15.7319C40.9042 18.2228 37.8984 19.5315 35.2336 17.8346C35.3945 17.9391 35.5519 18.0488 35.7055 18.1636Z" fill="#B51849"/>
<path opacity="0.8" d="M46.3984 36.3221C47.6808 34.4817 48.6246 32.4495 49.2063 30.3201C49.7698 27.757 48.739 25.8564 47.3874 24.7406C46.7609 24.2508 46.0576 23.857 45.104 23.6562C47.6062 28.1774 46.6305 32.839 45.1478 35.3786C42.1294 40.7479 37.3461 43.4081 34.6189 44.1915C34.7051 44.1727 34.7913 44.1532 34.8774 44.1332C35.0856 44.0847 35.2927 44.0328 35.4986 43.9776C39.9117 42.7949 43.775 40.0871 46.3984 36.3221Z" fill="#B51849"/>
<ellipse rx="5.6763" ry="5.79387" transform="matrix(0.944639 -0.328112 0.326766 0.945105 19.9525 11.7867)" fill="#EA4579"/>
<ellipse rx="4.41516" ry="4.42316" transform="matrix(0.944639 -0.328112 0.326766 0.945105 19.9173 11.6858)" fill="#FCFCFC"/>
<ellipse rx="2.404" ry="2.40835" transform="matrix(0.944639 -0.328112 0.326766 0.945105 21.0006 10.8541)" fill="#1A1A1A"/>
<path d="M22.0142 10.2736C22.2159 10.2036 22.3122 9.98696 22.2293 9.78981C22.1464 9.59265 21.9156 9.48962 21.714 9.55967C21.5123 9.62973 21.416 9.84635 21.4989 10.0435C21.5818 10.2407 21.8125 10.3437 22.0142 10.2736Z" fill="#FCFCFC"/>
<ellipse rx="5.67631" ry="5.79387" transform="matrix(0.944639 -0.328111 0.326766 0.945105 30.4144 8.1534)" fill="#EA4579"/>
<ellipse rx="4.41517" ry="4.42316" transform="matrix(0.944639 -0.328112 0.326765 0.945105 30.3793 8.05248)" fill="#FCFCFC"/>
<ellipse rx="2.404" ry="2.40835" transform="matrix(0.944639 -0.328111 0.326767 0.945105 31.4627 7.22077)" fill="#1A1A1A"/>
<path d="M32.4763 6.64033C32.678 6.57028 32.7743 6.35367 32.6913 6.15651C32.6084 5.95936 32.3777 5.85633 32.176 5.92638C31.9743 5.99643 31.878 6.21305 31.9609 6.4102C32.0439 6.60735 32.2746 6.71039 32.4763 6.64033Z" fill="#FCFCFC"/>
<path d="M38.3812 9.3947C39.5478 8.57099 40.886 10.9017 40.3198 11.6869C39.5856 12.4297 37.0067 10.608 38.3812 9.3947Z" fill="#F196B3"/>
<path d="M76.2372 24.5915C76.2372 24.5915 74.2991 17.6458 64.1976 17.6916C54.0937 17.7374 52.206 21.6671 52.7103 24.2202C53.1714 26.5564 54.5548 28.6032 58.2462 27.106C61.9376 25.6089 66.2726 26.5347 66.227 30.0087C66.227 30.0087 60.9673 27.5545 55.8469 30.0087C50.7265 32.463 51.0556 37.8464 53.0321 40.7057C54.9871 43.5312 62.8598 45.877 67.2861 42.0027L67.5623 41.7472C67.5623 41.7472 68.5134 44.0905 71.4939 44.0712C74.5272 44.0496 76.0859 42.6609 76.511 41.3277C76.9409 39.9969 76.9169 26.3177 76.2372 24.5915ZM64.2456 37.9887C62.9463 37.9887 61.892 37.099 61.892 36.0021C61.892 34.9052 62.9463 34.0156 64.2456 34.0156C65.5449 34.0156 66.5993 34.9052 66.5993 36.0021C66.5993 37.099 65.5449 37.9887 64.2456 37.9887Z" fill="#E94579"/>
<path d="M69.5461 20.6617C69.9376 20.8304 70.2763 21.0064 70.6269 21.2041C70.9728 21.4018 71.3114 21.6164 71.6404 21.8526C71.967 22.0913 72.2841 22.3541 72.5843 22.6434C72.8821 22.9399 73.1607 23.2702 73.4009 23.6439C73.6074 23.9621 73.5161 24.3864 73.2015 24.5938C72.8845 24.8011 72.4618 24.7095 72.2552 24.3937C72.2528 24.3889 72.248 24.384 72.2456 24.3768L72.2336 24.3575C72.0727 24.0899 71.871 23.8271 71.6428 23.5812C71.4075 23.3377 71.1481 23.1063 70.8719 22.8869C70.5933 22.6723 70.3003 22.4698 69.9953 22.2818C69.6951 22.0961 69.366 21.9129 69.0682 21.7707L69.049 21.761C68.7488 21.6188 68.6215 21.2596 68.7632 20.9582C68.9049 20.6617 69.2507 20.5339 69.5461 20.6617Z" fill="#F296B3"/>
<path d="M60.379 38.4951C60.379 38.4951 60.8257 39.6933 62.0122 39.797" stroke="#F296B3" stroke-width="0.960972" stroke-miterlimit="10" stroke-linecap="round" stroke-linejoin="round"/>
<path d="M84.2757 26.5295V33.8609C84.2757 33.9718 84.2733 34.0827 84.2709 34.1936C84.2373 35.3098 84.3142 43.1283 92.7249 44.0613C92.7897 44.0685 92.8546 44.0709 92.9194 44.0709H95.8254C95.8855 44.0709 95.9431 44.0685 96.0008 44.0613C96.6156 43.9962 100.175 43.5526 102.42 41.8891C103.97 40.7415 104.517 38.6127 103.667 36.8793C103.239 36.0066 102.48 35.2134 101.136 35.1676C100.571 35.1483 100.012 35.2857 99.4928 35.5148C98.1286 36.1151 94.1611 37.5254 94.2427 33.5355V26.5295H97.8068C97.8068 26.5295 102.442 26.5464 102.555 22.8602C102.673 19.0317 99.2695 18.7135 94.2427 18.6195C94.2427 18.6195 94.7807 11.141 89.6531 11.1892C84.5255 11.2374 84.684 15.8807 84.7561 18.8726C84.7561 18.8726 78.4372 18.0168 78.3892 22.607C78.3412 27.1973 84.2757 26.5295 84.2757 26.5295Z" fill="#E94579"/>
<path d="M90.4408 12.554C90.5512 12.5902 90.5897 12.6119 90.6545 12.6408C90.7122 12.6697 90.7626 12.7011 90.8178 12.7324C90.9187 12.7975 91.0124 12.8698 91.0964 12.9446C91.267 13.0965 91.4159 13.2652 91.5383 13.4436C91.7857 13.8004 91.9706 14.1838 92.0931 14.5719C92.1652 14.7672 92.2036 14.9625 92.2588 15.1578C92.2949 15.353 92.3381 15.5507 92.3669 15.746C92.3885 15.9413 92.4198 16.139 92.4342 16.3342L92.4702 16.9201C92.4918 17.2624 92.23 17.559 91.889 17.5783C91.5479 17.5999 91.2525 17.3372 91.2333 16.9948C91.2333 16.9804 91.2309 16.9659 91.2333 16.9538V16.9201L91.2381 16.3969C91.2357 16.2234 91.2213 16.0522 91.2141 15.881C91.1997 15.7098 91.1757 15.5435 91.1565 15.3747C91.1204 15.2132 91.1012 15.042 91.0532 14.8877C90.9763 14.5647 90.8539 14.2681 90.7002 14.0078C90.6233 13.8776 90.532 13.7619 90.436 13.6606C90.3879 13.61 90.3375 13.5666 90.2847 13.5256C90.2606 13.5087 90.2342 13.4894 90.2102 13.475C90.1934 13.4629 90.1478 13.4436 90.1718 13.4485C89.9244 13.3761 89.7851 13.1158 89.8572 12.8674C89.9364 12.6239 90.1958 12.4817 90.4408 12.554Z" fill="#F296B3"/>
<path d="M97.2327 37.9979C97.2327 37.9979 98.9619 37.8629 99.5888 36.9082" stroke="#F296B3" stroke-width="0.960972" stroke-miterlimit="10" stroke-linecap="round" stroke-linejoin="round"/>
<path d="M115.392 17.7233C115.392 17.7233 103.309 19.852 105.058 33.0708C106.9 46.9887 122.578 44.2451 125.424 42.4201C127.528 41.07 129.024 39.5825 127.974 36.7281C127.621 35.7709 127.067 34.891 126.286 34.2352C125.22 33.3408 123.481 32.6007 121.171 34.0158C117.126 36.4918 114.319 32.8466 114.626 30.508C114.931 28.1864 117.289 24.9751 122.081 27.9332C122.153 27.9791 122.225 28.0273 122.302 28.0707C123.003 28.4636 125.306 29.3098 127.475 25.6574C130.131 21.1877 124.36 18.1162 121 17.7209C117.198 17.2797 115.392 17.7233 115.392 17.7233Z" fill="#E94579"/>
<path d="M120.952 20.0232C121.187 20.0184 121.375 20.028 121.581 20.0473C121.783 20.0666 121.985 20.0955 122.186 20.1341C122.588 20.2112 122.984 20.3294 123.37 20.4957C123.757 20.6573 124.125 20.8887 124.461 21.1635C124.804 21.436 125.078 21.788 125.321 22.1544C125.503 22.4317 125.429 22.8053 125.152 22.9886C124.876 23.1718 124.504 23.097 124.322 22.8198C124.319 22.815 124.317 22.8126 124.314 22.8077L124.285 22.7619C124.122 22.5016 123.949 22.2412 123.709 22.0363C123.474 21.8289 123.212 21.6385 122.914 21.4986C122.619 21.3564 122.299 21.2431 121.97 21.1611C121.805 21.1226 121.636 21.0888 121.468 21.0647C121.305 21.0406 121.118 21.0237 120.978 21.0213H120.947C120.673 21.0117 120.457 20.7826 120.464 20.5054C120.474 20.2402 120.69 20.028 120.952 20.0232Z" fill="#F296B3"/>
<path d="M114.542 36.2964C114.542 36.2964 115.462 37.1667 116.888 37.2535" stroke="#F296B3" stroke-width="0.960972" stroke-miterlimit="10" stroke-linecap="round" stroke-linejoin="round"/>
<path d="M142.221 20.5219C142.221 20.5219 143.083 8.23857 137.876 8.09151C132.449 7.93721 131.257 9.5983 131.346 26.5322C131.433 43.1791 132.199 44.0736 136.784 44.0736C141.349 44.0736 141.671 41.5687 142.13 29.1576C142.132 29.0636 142.135 28.9671 142.132 28.8731C142.125 28.2752 142.233 25.5871 144.774 25.5799C147.104 25.5726 147.135 28.89 147.092 29.8857C147.082 30.1268 147.075 30.3678 147.075 30.6089L147.082 35.679C147.082 35.908 147.077 36.1394 147.073 36.3685C147.037 37.7595 147.106 44.2399 151.677 44.076C156.309 43.9096 157.198 41.2408 157.529 34.6833C157.846 28.3789 159.52 16.6718 147.38 17.7374C147.38 17.7325 144.728 17.7615 142.221 20.5219Z" fill="#E94579"/>
<path d="M138.482 10.0444C138.561 10.1143 138.587 10.1456 138.633 10.1938C138.674 10.2372 138.71 10.2806 138.746 10.3264C138.816 10.4132 138.88 10.5024 138.94 10.5916C139.061 10.77 139.161 10.9533 139.255 11.1413C139.44 11.515 139.574 11.8983 139.685 12.2865C139.798 12.6746 139.87 13.0652 139.935 13.4581L140.007 14.0464L140.05 14.6346C140.074 14.9673 139.827 15.2566 139.495 15.2807C139.164 15.3049 138.876 15.0565 138.852 14.7238C138.852 14.7166 138.852 14.7094 138.852 14.7021V14.6732L138.832 14.138L138.789 13.6076C138.746 13.258 138.695 12.9085 138.611 12.5709C138.532 12.2334 138.429 11.9031 138.292 11.5994C138.222 11.4475 138.15 11.3004 138.066 11.1654C138.025 11.0955 137.982 11.0328 137.937 10.9725L137.869 10.8882C137.852 10.8665 137.816 10.8303 137.824 10.8351C137.608 10.6519 137.579 10.3264 137.761 10.107C137.939 9.88765 138.263 9.85872 138.482 10.0444Z" fill="#F296B3"/>
<path d="M184.186 9.86136C184.186 9.86136 178.993 9.1815 177.73 16.2935C176.719 21.9904 175.883 31.7929 175.59 35.4695C175.489 36.7448 175.547 38.0274 175.79 39.2811C176.186 41.3303 177.062 43.9822 178.938 44.0714C182.341 44.233 183.717 44.0883 184.486 38.242L185.805 26.53C185.805 26.53 186.472 26.6072 187.851 33.8783C189.229 41.1495 191.636 43.0372 193.867 42.9865C196.098 42.9359 198.632 41.6726 200.102 33.9555C201.572 26.2383 202.506 26.5276 202.506 26.5276C202.506 26.5276 203.265 39.4233 204.684 41.6726C205.712 43.3024 207.388 44.069 208.729 44.069C210.069 44.069 212.754 43.1433 212.696 38.6012C212.639 34.0591 211.411 17.9594 209.512 13.1353C207.612 8.31117 201.038 9.43705 199.564 12.2385C198.233 14.7675 194.088 26.9568 194.088 26.9568L189.383 14.0153C188.384 11.3609 186.753 10.2495 184.505 9.90234C184.4 9.88788 184.294 9.87341 184.186 9.86136Z" fill="#E94579"/>
<path d="M205.95 11.9467C206.043 11.9588 206.082 11.9684 206.14 11.9829C206.195 11.9949 206.243 12.0118 206.293 12.0287C206.392 12.0648 206.485 12.101 206.574 12.1492C206.757 12.2384 206.915 12.3565 207.067 12.4819C207.364 12.7375 207.59 13.0533 207.765 13.3787C207.948 13.7042 208.056 14.0466 208.152 14.3889C208.188 14.5601 208.229 14.7312 208.26 14.9024L208.327 15.4135C208.371 15.7438 208.14 16.0476 207.811 16.091C207.482 16.1344 207.179 15.9029 207.136 15.5726C207.134 15.5606 207.134 15.5485 207.131 15.5365L207.129 15.4955L207.098 15.0639L207.038 14.6444C206.975 14.3744 206.91 14.1044 206.795 13.8706C206.687 13.6319 206.55 13.4149 206.377 13.2486C206.291 13.169 206.2 13.0894 206.101 13.034C206.053 13.0027 206.003 12.981 205.952 12.9568C205.928 12.9472 205.902 12.9351 205.88 12.9303C205.863 12.9231 205.822 12.9159 205.839 12.9159C205.573 12.8845 205.383 12.6434 205.414 12.3782C205.445 12.1082 205.686 11.9154 205.95 11.9467Z" fill="#F296B3"/>
<path d="M237.165 35.368C236.622 35.5175 236.122 35.7755 235.608 36.0045C234.761 36.3854 232.556 37.6632 228.667 36.8194C227.45 36.5542 226.203 35.5513 225.797 34.8208C225.608 34.4808 225.495 34.0903 225.471 33.6804C225.471 33.6804 233.824 36.9062 238.767 32.8366C243.709 28.7671 240.942 22.6652 238.024 20.4328C235.106 18.2003 227.495 15.4206 220.18 20.2351C212.864 25.0471 215.254 38.4419 221.217 41.9183C226.924 45.2453 235.997 44.2496 239.062 41.9183C242.127 39.587 241.759 37.7138 240.659 36.2817C239.797 35.1535 238.454 35.0112 237.165 35.368ZM227.411 26.7998C228.334 26.4382 229.563 26.4671 230.313 26.619C230.867 26.7323 231.809 27.0795 231.581 28.0752C231.172 29.8496 226.275 30.257 225.877 28.8129C225.586 27.7545 226.583 27.1253 227.411 26.7998Z" fill="#E94579"/>
<path d="M232.292 20.2881C232.378 20.2905 232.426 20.2953 232.481 20.3002L232.635 20.317C232.733 20.3315 232.834 20.346 232.93 20.3653C233.125 20.4014 233.315 20.4496 233.502 20.5027C233.877 20.6136 234.244 20.7582 234.595 20.9366C234.948 21.1126 235.279 21.3296 235.591 21.5779C235.909 21.819 236.182 22.1107 236.444 22.4097C236.663 22.6604 236.639 23.0413 236.389 23.2607C236.139 23.4801 235.76 23.456 235.541 23.2052L235.539 23.2028L235.512 23.1715C235.308 22.9328 235.097 22.6941 234.849 22.4989C234.607 22.2964 234.343 22.1155 234.059 21.9685C233.778 21.819 233.48 21.6912 233.175 21.5972C233.022 21.5514 232.868 21.508 232.712 21.4767C232.635 21.4598 232.558 21.4477 232.481 21.4333L232.371 21.4188L232.294 21.4116L232.229 21.4043C231.922 21.373 231.698 21.0982 231.732 20.7896C231.756 20.5027 232.006 20.2857 232.292 20.2881Z" fill="#F296B3"/>
<path d="M225.355 37.9268C225.355 37.9268 226.591 38.823 227.399 38.9409" stroke="#F296B3" stroke-width="0.960972" stroke-miterlimit="10" stroke-linecap="round" stroke-linejoin="round"/>
</svg>
